<?xml version="1.0" standalone="no"?>
<!DOCTYPE svg PUBLIC "-//W3C//DTD SVG 1.1//EN" "http://www.w3.org/Graphics/SVG/1.1/DTD/svg11.dtd" >
<svg>
<metadata>
Created by FontForge 20090622 at Fri Oct 26 13:36:34 2018
 By deploy user
Copyright &#194;&#169; 2014 Monotype Imaging Inc. All rights reserved.
</metadata>
<defs>
<font id="SerifaW01-65Bold" horiz-adv-x="556" >
  <font-face 
    font-family="SerifaW01-65Bold"
    font-weight="700"
    font-stretch="normal"
    units-per-em="1000"
    panose-1="2 6 7 3 3 5 5 2 2 4"
    ascent="800"
    descent="-200"
    x-height="468"
    cap-height="654"
    bbox="-88 -250 1000 915"
    underline-thickness="50"
    underline-position="-75"
    unicode-range="U+000D-U+2122"
  />
<missing-glyph horiz-adv-x="500" 
d="M250 305l-170 -255h340zM450 605l-170 -255l170 -255v510zM50 95l170 255l-170 255v-510zM250 395l170 255h-340zM500 700v-700h-500v700h500z" />
    <glyph glyph-name=".notdef" horiz-adv-x="500" 
d="M250 305l-170 -255h340zM450 605l-170 -255l170 -255v510zM50 95l170 255l-170 255v-510zM250 395l170 255h-340zM500 700v-700h-500v700h500z" />
    <glyph glyph-name="glyph1" horiz-adv-x="0" 
 />
    <glyph glyph-name="glyph1" horiz-adv-x="0" 
 />
    <glyph glyph-name="uni000D" unicode="&#xd;" horiz-adv-x="278" 
 />
    <glyph glyph-name="space" unicode=" " horiz-adv-x="278" 
 />
    <glyph glyph-name="exclam" unicode="!" horiz-adv-x="390" 
d="M268 133v-133h-146v133h146zM270 654l-30 -466h-90l-30 466h150z" />
    <glyph glyph-name="quotedbl" unicode="&#x22;" 
d="M411 654v-276h-100v276h100zM245 654v-276h-100v276h100z" />
    <glyph glyph-name="numbersign" unicode="#" 
d="M220 268h99l17 118h-99zM274 654l-26 -188h99l26 188h80l-26 -188h80l-12 -80h-78l-18 -118h80l-11 -80h-80l-26 -188h-80l26 188h-99l-26 -188h-80l26 188h-80l11 80h80l17 118h-80l11 80h80l26 188h80z" />
    <glyph glyph-name="dollar" unicode="$" 
d="M514 450h-120q-4 65 -32.5 96.5t-96.5 31.5q-42 0 -73 -19.5t-31 -65.5q0 -23 10.5 -39t30.5 -27.5t49 -20t65 -16.5q67 -16 106.5 -34t62.5 -43q46 -47 46 -130q0 -42 -14.5 -77.5t-41.5 -61.5t-65 -41.5t-86 -16.5v-76h-95v86q-26 6 -48 20.5t-39 37.5h-2v-54h-115v220
h120q0 -79 33.5 -111.5t105.5 -32.5q18 0 37 5.5t35 16t26.5 26.5t10.5 37q0 30 -10.5 50t-30.5 34.5t-48.5 24t-65.5 17.5q-33 7 -58.5 14t-45.5 15t-35 17.5t-27 21.5q-44 44 -44 123q0 84 52 135t149 55v78h95v-90q21 -7 39 -20t34 -35h2v53h115v-204z" />
    <glyph glyph-name="percent" unicode="%" horiz-adv-x="889" 
d="M654 56q33 0 50 26.5t17 75.5q0 57 -17.5 79.5t-50.5 22.5q-13 0 -25 -4.5t-21 -16.5t-14.5 -31.5t-5.5 -49.5q0 -102 67 -102zM816 158q0 -81 -44 -126.5t-118 -45.5q-80 0 -121 48t-41 124q0 78 40.5 125t121.5 47t121.5 -47t40.5 -125zM235 394q33 0 50 26t17 76
q0 22 -3 40.5t-10.5 32t-20.5 21.5t-34 8q-31 0 -48.5 -24t-17.5 -78q0 -102 67 -102zM397 496q0 -77 -42 -124.5t-120 -47.5q-80 0 -121 48t-41 124q0 78 40.5 125t121.5 47t121.5 -47t40.5 -125zM735 674l-495 -694h-85l496 694h84z" />
    <glyph glyph-name="ampersand" unicode="&#x26;" horiz-adv-x="778" 
d="M297 76q35 0 64.5 13t57.5 35l-163 167q-36 -22 -57 -44.5t-21 -64.5q0 -25 9.5 -45t26 -33.5t38 -20.5t45.5 -7zM285 426q37 20 60 42.5t23 44.5q0 32 -20 48.5t-51 16.5q-28 0 -45.5 -17t-17.5 -48q0 -26 17 -46zM493 509q0 -98 -126 -163l136 -137q16 19 27.5 44
t13.5 48h-56v95h242v-95h-73q-11 -98 -78 -170l34 -36h117v-95h-190l-50 49q-35 -30 -84.5 -46.5t-131.5 -16.5q-52 0 -95 12.5t-74 37.5t-48 62t-17 85q0 74 33.5 119.5t99.5 74.5q-33 34 -48.5 66.5t-15.5 67.5q0 37 14.5 66t41 49.5t63.5 31t82 10.5q82 0 132.5 -40
t50.5 -119z" />
    <glyph glyph-name="quoteright" unicode="&#x2019;" horiz-adv-x="278" 
d="M212 654v-146l-50 -130h-90l50 130h-56v146h146z" />
    <glyph glyph-name="parenleft" unicode="(" horiz-adv-x="333" 
d="M306 722q-33 -55 -56.5 -107.5t-38.5 -105.5t-22 -107t-7 -112q0 -53 7.5 -107.5t23 -107t38.5 -102.5t55 -93h-100q-60 91 -99.5 194.5t-39.5 214.5q0 115 39 224t100 209h100z" />
    <glyph glyph-name="parenright" unicode=")" horiz-adv-x="333" 
d="M127 722q60 -91 99.5 -194.5t39.5 -214.5q0 -115 -39 -224t-100 -209h-100q33 55 56.5 107.5t38.5 105.5t22 107t7 112q0 53 -7.5 107.5t-23 107t-39 102t-54.5 93.5h100z" />
    <glyph glyph-name="asterisk" unicode="*" 
d="M328 654l-12 -115l105 46l30 -90l-115 -27l78 -84l-76 -56l-61 97l-61 -97l-75 56l78 84l-114 27l28 90l109 -46l-10 115h96z" />
    <glyph glyph-name="plus" unicode="+" horiz-adv-x="600" 
d="M350 506v-203h203v-100h-203v-203h-100v203h-203v100h203v203h100z" />
    <glyph glyph-name="comma" unicode="," horiz-adv-x="278" 
d="M212 146v-146l-50 -130h-90l50 130h-56v146h146z" />
    <glyph glyph-name="hyphen" unicode="-" horiz-adv-x="333" 
d="M284 319v-100h-235v100h235z" />
    <glyph glyph-name="period" unicode="." horiz-adv-x="278" 
d="M212 146v-146h-146v146h146z" />
    <glyph glyph-name="slash" unicode="/" horiz-adv-x="389" 
d="M371 668l-253 -682h-100l253 682h100z" />
    <glyph glyph-name="zero" unicode="0" 
d="M278 81q31 0 51.5 17.5t31.5 49.5t15.5 77.5t4.5 101.5q0 59 -4.5 105t-16.5 77.5t-32 47.5t-51 16q-36 0 -56 -22.5t-30.5 -58.5t-13 -79.5t-2.5 -85.5q0 -53 4 -98t15 -78t31 -51.5t53 -18.5zM519 327q0 -163 -60.5 -252t-180.5 -89q-118 0 -179.5 87t-61.5 254
q0 78 14.5 141.5t44 107.5t75 68t107.5 24q118 0 179.5 -87t61.5 -254z" />
    <glyph glyph-name="one" unicode="1" 
d="M381 654v-559h100v-95h-333v95h100v441q-33 -30 -71 -57l-73 -50v125q38 24 72 48.5t67 51.5h138z" />
    <glyph glyph-name="two" unicode="2" 
d="M286 668q47 0 86 -12.5t66.5 -37t43 -61t15.5 -84.5q0 -56 -48.5 -121.5t-151.5 -155.5l-43 -37l-29.5 -26l-22 -19.5t-19.5 -18.5h204v85h120v-180h-472v127l89 76l42.5 37l52.5 46.5t52 49.5t41 45q23 29 35 55t12 53q0 32 -21 58t-64 26t-66.5 -27.5t-26.5 -90.5h-138
q3 115 62 164t181 49z" />
    <glyph glyph-name="three" unicode="3" 
d="M504 485q0 -64 -36 -102.5t-100 -44.5v-2q30 -3 56 -14.5t45 -31.5t30 -47t11 -60q0 -97 -65 -147t-178 -50q-118 0 -174 52t-56 149h138q0 -59 27.5 -82.5t66.5 -23.5q45 0 74 26t29 74q0 33 -9.5 53.5t-27 32t-42 15.5t-54.5 4h-11v100h21q57 0 87 23.5t30 73.5
q0 48 -25.5 69t-68.5 21q-47 0 -67.5 -30.5t-21.5 -73.5h-138q0 59 23 97.5t57.5 61t76 31.5t78.5 9q51 0 92 -11.5t70.5 -34t45.5 -57t16 -80.5z" />
    <glyph glyph-name="four" unicode="4" 
d="M317 522l-194 -266h196v266h-2zM452 654v-398h80v-95h-80v-66h75v-95h-298v95h90v66h-298v123l271 370h160z" />
    <glyph glyph-name="five" unicode="5" 
d="M488 654v-95h-292v-178h2q24 32 58 46t75 14q90 0 139 -64q50 -64 50 -162q0 -44 -12.5 -85.5t-41 -73.5t-75 -51t-115.5 -19q-33 0 -71 8t-71 29t-54.5 56.5t-21.5 90.5h138q3 -45 24 -67t66 -22q26 0 44 10t29.5 28t17 42t5.5 51t-5 51t-17 42.5t-30.5 29.5t-45.5 11
q-38 0 -63 -25.5t-25 -63.5h-133v397h425z" />
    <glyph glyph-name="six" unicode="6" 
d="M284 76q28 0 47 13t31 33.5t17 45t5 48.5q0 25 -5.5 48t-17.5 40.5t-32 27.5t-48 10q-27 0 -46.5 -11t-32.5 -29.5t-19 -42t-6 -47.5q0 -66 26.5 -101t80.5 -35zM371 495q-1 40 -20 61.5t-57 21.5q-59 0 -85.5 -56.5t-31.5 -158.5h2q29 39 63 54t86 15q47 0 82.5 -19.5
t59 -51t35.5 -72t12 -81.5q0 -108 -60.5 -165t-181.5 -57q-74 0 -120.5 25t-72 68.5t-34.5 102t-9 124.5q0 362 261 362q91 0 146.5 -41t62.5 -132h-138z" />
    <glyph glyph-name="seven" unicode="7" 
d="M515 654v-110l-68 -134.5t-60 -131.5q-28 -65 -54.5 -134t-52.5 -144h-146q57 144 120 284t138 275h-226v-115h-120v210h469z" />
    <glyph glyph-name="eight" unicode="8" 
d="M279 76q49 0 74.5 30.5t25.5 78.5t-25 77.5t-76 29.5q-49 0 -75 -28.5t-26 -78.5t25.5 -79.5t76.5 -29.5zM279 382q97 0 97 97q0 99 -98 99q-45 0 -70.5 -23t-25.5 -76q0 -97 97 -97zM501 479q0 -63 -35.5 -96.5t-93.5 -44.5v-1q63 -11 101.5 -49t38.5 -105
q0 -97 -56.5 -147t-176.5 -50q-55 0 -98.5 10t-74 33t-46.5 60.5t-16 92.5q0 29 10.5 56t29 48t44 34.5t55.5 16.5v2q-58 11 -92 44t-34 96q0 46 16 81t45 59t70 36.5t91 12.5t91 -12.5t70 -36.5t45 -59t16 -81z" />
    <glyph glyph-name="nine" unicode="9" 
d="M274 312q27 0 47 11t33 29.5t19 42t6 47.5q0 61 -25 98.5t-83 37.5q-24 0 -42.5 -11t-31 -30t-19 -44.5t-6.5 -54.5q0 -54 24 -90t78 -36zM517 348q0 -180 -63.5 -271t-197.5 -91q-45 0 -82 9.5t-64 30.5t-43.5 54t-19.5 79h138q1 -40 20 -61.5t57 -21.5q55 0 83.5 52.5
t33.5 162.5h-2q-29 -39 -63 -54t-86 -15q-45 0 -80.5 18.5t-59.5 50t-36.5 71.5t-12.5 84q0 111 62 166.5t180 55.5q72 0 118 -24t72.5 -67t36 -101.5t9.5 -127.5z" />
    <glyph glyph-name="colon" unicode=":" horiz-adv-x="278" 
d="M212 146v-146h-146v146h146zM212 468v-146h-146v146h146z" />
    <glyph glyph-name="semicolon" unicode=";" horiz-adv-x="278" 
d="M212 146v-146l-50 -130h-90l50 130h-56v146h146zM212 468v-146h-146v146h146z" />
    <glyph glyph-name="less" unicode="&#x3c;" horiz-adv-x="600" 
d="M545 406l-352 -153l352 -153v-100l-490 211v84l490 211v-100z" />
    <glyph glyph-name="equal" unicode="=" horiz-adv-x="600" 
d="M553 194v-100h-506v100h506zM553 412v-100h-506v100h506z" />
    <glyph glyph-name="greater" unicode="&#x3e;" horiz-adv-x="600" 
d="M55 506l490 -211v-84l-490 -211v100l352 153l-352 153v100z" />
    <glyph glyph-name="question" unicode="?" horiz-adv-x="500" 
d="M313 133v-133h-146v133h146zM257 668q41 0 79 -11t66.5 -32t45.5 -52.5t17 -73.5q0 -46 -20 -79.5t-61 -70.5q-22 -20 -37.5 -36.5t-25 -33t-14 -33.5t-4.5 -38v-20h-125v37q0 26 3 45.5t11.5 38.5t24.5 39t43 46q18 18 30.5 32t20.5 27t12 26.5t4 30.5q0 32 -19.5 50
t-53.5 18q-47 0 -63 -27.5t-18 -82.5h-138q0 108 57.5 154t164.5 46z" />
    <glyph glyph-name="at" unicode="@" horiz-adv-x="800" 
d="M378 213q23 0 42.5 11t33.5 29t21.5 41t7.5 48q0 37 -19.5 59t-52.5 22q-24 0 -44.5 -10.5t-35 -28t-23 -40.5t-8.5 -47q0 -38 20 -61t58 -23zM731 391q0 -73 -27 -123.5t-64.5 -81.5t-76 -44.5t-61.5 -13.5q-20 0 -35 12t-15 36h-2q-18 -20 -43.5 -34t-51.5 -14
q-29 0 -55.5 12.5t-46.5 33.5t-31.5 49t-11.5 60q0 41 13.5 81.5t38.5 72.5t61 51.5t80 19.5q36 0 63 -16t45 -45l12 48h78l-51 -231q-6 -24 -6 -35q0 -8 2.5 -14.5t10.5 -6.5q19 0 37.5 11t33.5 32t24 50.5t9 67.5q0 54 -18 96.5t-50.5 72t-78 45t-101.5 15.5
q-58 0 -105.5 -20t-81.5 -56t-53 -86.5t-19 -110.5q0 -61 20 -110.5t56 -85t86 -54.5t110 -19q56 0 104.5 19.5t83.5 54.5h80q-48 -69 -118.5 -106.5t-154.5 -37.5q-73 0 -137 25.5t-112 71t-75.5 108t-27.5 136.5q0 73 28 135.5t75 108.5t110 71.5t133 25.5q61 0 118 -19.5
t101 -55.5t70.5 -87.5t26.5 -114.5z" />
    <glyph glyph-name="A" unicode="A" horiz-adv-x="778" 
d="M283 295h198l-98 251zM475 654l229 -559h55v-95h-281v95h82l-43 105h-271l-41 -105h82v-95h-268v95h55l231 559h170z" />
    <glyph glyph-name="B" unicode="B" horiz-adv-x="667" 
d="M347 95q74 0 105 23.5t31 78.5q0 32 -10.5 51t-28.5 28.5t-42 12t-51 2.5h-103v-196h99zM330 381q66 0 99.5 22t33.5 72q0 43 -28.5 63.5t-94.5 20.5h-92v-178h82zM350 654q47 0 92 -4t80.5 -20t57 -48t21.5 -88q0 -132 -134 -149v-2q30 -1 58 -12.5t49.5 -31t34 -47.5
t12.5 -62q0 -62 -22 -99.5t-58 -57.5t-80.5 -26.5t-89.5 -6.5h-343v95h82v464h-82v95h322z" />
    <glyph glyph-name="C" unicode="C" horiz-adv-x="722" 
d="M670 412h-125q-1 75 -46.5 118t-118.5 43q-93 0 -141.5 -68t-48.5 -194q0 -53 13.5 -95.5t39 -72.5t62.5 -46t85 -16q30 0 56.5 10.5t46.5 29t32 45.5t14 60h133q0 -58 -21.5 -102.5t-59.5 -75t-90.5 -46.5t-115.5 -16q-83 0 -146.5 24t-106.5 68.5t-65.5 106.5
t-22.5 137q0 79 20.5 143t60.5 109t98 69.5t133 24.5q56 0 104.5 -18.5t84.5 -71.5v76h125v-242z" />
    <glyph glyph-name="D" unicode="D" horiz-adv-x="778" 
d="M360 95q104 0 158.5 61.5t54.5 170.5q0 112 -54.5 172t-158.5 60h-112v-464h112zM381 654q74 0 136 -19t107 -59t70 -101.5t25 -146.5q0 -81 -24.5 -142t-70 -102.5t-110.5 -62.5t-146 -21h-340v95h82v464h-82v95h353z" />
    <glyph glyph-name="E" unicode="E" horiz-adv-x="667" 
d="M622 654v-196h-115v101h-259v-178h99v89h105v-267h-105v88h-99v-196h259v119h115v-214h-594v95h82v464h-82v95h594z" />
    <glyph glyph-name="F" unicode="F" horiz-adv-x="667" 
d="M622 654v-219h-115v124h-259v-191h92v87h105v-267h-105v90h-92v-183h97v-95h-317v95h82v464h-82v95h594z" />
    <glyph glyph-name="G" unicode="G" horiz-adv-x="778" 
d="M682 654v-230h-125q-3 72 -50 110.5t-127 38.5q-93 0 -141.5 -68t-48.5 -194q0 -51 13 -93.5t38.5 -73t62.5 -47t86 -16.5q35 0 65 11t52.5 31t35.5 49.5t14 67.5h-99v95h295v-95h-65v-240h-125v74h-2q-27 -47 -76 -67.5t-101 -20.5q-80 0 -143.5 23.5t-107 67t-66.5 106
t-23 139.5q0 79 21 143t61 109t98 69.5t132 24.5q63 0 115 -18t84 -60h2v64h125z" />
    <glyph glyph-name="H" unicode="H" horiz-adv-x="778" 
d="M343 654v-95h-95v-178h282v178h-95v95h315v-95h-82v-464h82v-95h-315v95h95v191h-282v-191h95v-95h-315v95h82v464h-82v95h315z" />
    <glyph glyph-name="I" unicode="I" horiz-adv-x="388" 
d="M345 654v-95h-82v-464h82v-95h-302v95h82v464h-82v95h302z" />
    <glyph glyph-name="J" unicode="J" 
d="M528 654v-95h-75v-369q0 -42 -9.5 -79t-34 -65t-68 -44t-111.5 -16q-50 0 -86.5 11t-61.5 35.5t-37 64t-12 95.5v27h138v-29q0 -55 17.5 -82t59.5 -27q30 0 48.5 24.5t18.5 69.5v384h-105v95h318z" />
    <glyph glyph-name="K" unicode="K" horiz-adv-x="723" 
d="M330 654v-95h-82v-207l206 207h-60v95h283v-95h-60l-210 -212l228 -252h60v-95h-307v95h75l-215 239v-239h82v-95h-302v95h82v464h-82v95h302z" />
    <glyph glyph-name="L" unicode="L" horiz-adv-x="611" 
d="M353 654v-95h-105v-464h215v135h120v-230h-555v95h82v464h-82v95h325z" />
    <glyph glyph-name="M" unicode="M" horiz-adv-x="944" 
d="M333 654l138 -485h2l136 485h306v-95h-82v-464h82v-95h-290v95h75v464h-2l-164 -559h-142l-164 559h-2v-464h75v-95h-272v95h82v464h-82v95h304z" />
    <glyph glyph-name="N" unicode="N" horiz-adv-x="779" 
d="M298 654l252 -486h2v391h-82v95h289v-95h-82v-559h-182l-266 505h-2v-410h82v-95h-289v95h82v464h-82v95h278z" />
    <glyph glyph-name="O" unicode="O" horiz-adv-x="778" 
d="M389 81q97 0 148 64.5t51 181.5t-50.5 181.5t-149.5 64.5q-96 0 -147 -64t-51 -182q0 -117 51 -181.5t148 -64.5zM734 327q0 -76 -23.5 -139t-68 -108t-108.5 -69.5t-145 -24.5q-82 0 -146 25t-108.5 70.5t-67.5 108t-23 137.5q0 76 23.5 139t68 108t108.5 69.5t145 24.5
q79 0 143 -24.5t109 -69t69 -107.5t24 -140z" />
    <glyph glyph-name="P" unicode="P" horiz-adv-x="667" 
d="M334 339q70 0 106 23.5t36 84.5q0 41 -12 63.5t-32.5 33.5t-46.5 13t-53 2h-76v-220h78zM386 654q121 0 174.5 -50t53.5 -150q0 -106 -54.5 -158t-175.5 -52h-128v-149h105v-95h-333v95h90v464h-90v95h358z" />
    <glyph glyph-name="Q" unicode="Q" horiz-adv-x="778" 
d="M389 81q97 0 148 64.5t51 181.5q0 54 -11.5 99t-36 77.5t-62.5 51t-90 18.5q-96 0 -147 -64t-51 -182q0 -117 51 -181.5t148 -64.5zM734 328q0 -38 -9.5 -74.5t-28 -68.5t-46 -57t-64.5 -40v-1q13 5 22.5 6.5t22.5 1.5h131v-95h-250q-29 0 -62 -7t-62 -7
q-81 0 -144.5 24.5t-108 69.5t-68 108t-23.5 139t23.5 139t68 108t108.5 69.5t145 24.5q82 0 146.5 -25.5t108.5 -70.5t67 -107.5t23 -136.5z" />
    <glyph glyph-name="R" unicode="R" horiz-adv-x="722" 
d="M362 366q58 0 95 23t37 76q0 47 -26.5 70.5t-83.5 23.5h-128v-193h106zM413 654q111 0 162.5 -42t51.5 -144q0 -63 -40.5 -104t-109.5 -47v-2q32 -2 53.5 -14t36.5 -31t24.5 -43t17.5 -49l25 -83h65v-95h-181l-53 179q-6 19 -13 36t-19 29.5t-29.5 19.5t-44.5 7h-103
v-176h82v-95h-310v95h90v464h-90v95h385z" />
    <glyph glyph-name="S" unicode="S" horiz-adv-x="612" 
d="M542 654v-204h-120q-2 27 -7.5 50.5t-19.5 40.5t-38.5 27t-62.5 10q-45 0 -75 -20t-30 -65q0 -23 11 -39t31.5 -27.5t50 -20t66.5 -17.5q42 -10 80 -23.5t67.5 -36.5t46.5 -58t17 -88q0 -46 -16.5 -82.5t-45.5 -62t-68 -39t-84 -13.5q-38 0 -65 4.5t-47.5 13t-35.5 21
t-27 29.5h-2v-54h-115v220h120q0 -78 33 -111t106 -33q18 0 37 5.5t35 16t26.5 26.5t10.5 37q0 30 -10.5 50.5t-30.5 34.5t-49 23.5t-66 17.5q-66 14 -104 29t-63 41q-42 43 -42 121q0 46 15.5 81.5t43.5 59.5t67 36.5t86 12.5q48 0 87.5 -13t69.5 -54h2v53h115z" />
    <glyph glyph-name="T" unicode="T" horiz-adv-x="666" 
d="M631 654v-226h-115v131h-114v-464h95v-95h-328v95h95v464h-114v-131h-115v226h596z" />
    <glyph glyph-name="U" unicode="U" horiz-adv-x="722" 
d="M314 654v-95h-90v-308q0 -90 37 -130t106 -40q77 0 110.5 41t33.5 113v324h-90v95h285v-95h-70v-332q0 -49 -19.5 -92.5t-54.5 -76.5t-85 -52.5t-111 -19.5q-75 0 -128 19.5t-87 53t-49.5 78t-15.5 94.5v328h-70v95h298z" />
    <glyph glyph-name="V" unicode="V" horiz-adv-x="778" 
d="M318 654v-95h-90l166 -424l165 424h-90v95h290v-95h-60l-231 -559h-161l-228 559h-60v95h299z" />
    <glyph glyph-name="W" unicode="W" horiz-adv-x="999" 
d="M293 654v-95h-90l86 -413h2l127 508h178l120 -508h2l93 413h-90v95h257v-95h-45l-138 -559h-172l-123 516h-2l-128 -516h-172l-132 559h-45v95h272z" />
    <glyph glyph-name="X" unicode="X" horiz-adv-x="722" 
d="M323 654v-95h-75l120 -140l124 140h-75v95h276v-95h-45l-202 -223l214 -241h45v-95h-302v95h85l-135 157l-136 -157h85v-95h-285v95h45l213 241l-201 223h-45v95h294z" />
    <glyph glyph-name="Y" unicode="Y" horiz-adv-x="723" 
d="M318 654v-95h-85l135 -206l136 206h-85v95h288v-95h-55l-222 -325v-139h95v-95h-328v95h95v139l-221 325h-55v95h302z" />
    <glyph glyph-name="Z" unicode="Z" horiz-adv-x="668" 
d="M613 654v-120l-408 -439h304v132h115v-227h-580v122l403 437h-277v-120h-115v215h558z" />
    <glyph glyph-name="bracketleft" unicode="[" horiz-adv-x="333" 
d="M292 722v-75h-105v-692h105v-75h-210v842h210z" />
    <glyph glyph-name="backslash" unicode="\" horiz-adv-x="389" 
d="M118 668l253 -682h-100l-253 682h100z" />
    <glyph glyph-name="bracketright" unicode="]" horiz-adv-x="333" 
d="M251 722v-842h-210v75h105v692h-105v75h210z" />
    <glyph glyph-name="asciicircum" unicode="^" horiz-adv-x="600" 
d="M346 654l176 -366h-95l-126 266l-128 -266h-95l178 366h90z" />
    <glyph glyph-name="underscore" unicode="_" horiz-adv-x="500" 
d="M500 -75v-50h-500v50h500z" />
    <glyph glyph-name="quoteleft" unicode="&#x2018;" horiz-adv-x="278" 
d="M206 654l-50 -130h56v-146h-146v146l50 130h90z" />
    <glyph glyph-name="a" unicode="a" 
d="M233 76q21 0 42.5 6.5t39.5 22.5t29 42.5t11 66.5h-69q-69 0 -96.5 -19.5t-27.5 -54.5q0 -33 20 -48.5t51 -15.5zM540 90v-90h-183v68h-2q-31 -47 -66.5 -64.5t-88.5 -17.5q-35 0 -65 10t-51.5 29.5t-34 47t-12.5 63.5q0 52 21 83t56.5 47.5t82 22t97.5 5.5h61v36
q0 32 -20 52t-70 20q-39 0 -62 -17.5t-26 -58.5h-125q3 47 21 77t48 47.5t70.5 24.5t88.5 7q55 0 93 -11.5t62 -36t34.5 -63t10.5 -92.5v-189h60z" />
    <glyph glyph-name="b" unicode="b" horiz-adv-x="611" 
d="M345 81q45 0 72.5 38.5t27.5 114.5q0 72 -27.5 112.5t-84.5 40.5q-56 0 -85.5 -40.5t-29.5 -106.5q0 -80 29 -119.5t98 -39.5zM226 668v-268l2 2q22 40 61.5 60t83.5 20q100 0 155 -67t55 -188q0 -49 -13 -93t-38.5 -77t-63.5 -52t-87 -19q-61 0 -98.5 20.5t-66.5 71.5
h-2v-78h-186v90h65v488h-65v90h198z" />
    <glyph glyph-name="c" unicode="c" horiz-adv-x="500" 
d="M471 287h-105q-2 54 -25 79.5t-71 25.5q-54 0 -79 -42.5t-25 -113.5q0 -155 107 -155q36 0 60 22t27 60h120q-7 -85 -64 -131t-144 -46q-65 0 -111 20.5t-75.5 54.5t-43.5 76.5t-14 87.5q0 57 12.5 104.5t39 81t66.5 52.5t95 19q40 0 74 -17.5t54 -50.5h2v54h100v-181z
" />
    <glyph glyph-name="d" unicode="d" horiz-adv-x="611" 
d="M266 81q36 0 60.5 11t39.5 31t21 49.5t6 67.5q0 28 -6 54.5t-20 47t-36.5 33t-54.5 12.5q-54 0 -82 -40.5t-28 -112.5q0 -75 27.5 -114t72.5 -39zM518 668v-578h65v-90h-185v78h-2q-32 -51 -69 -71.5t-97 -20.5q-52 0 -90 20t-63 54t-37 77t-12 90q0 120 55 187.5
t155 67.5q58 0 93 -24t52 -59h2v179h-65v90h198z" />
    <glyph glyph-name="e" unicode="e" 
d="M384 281q0 51 -25.5 81t-78.5 30q-48 0 -75.5 -31t-27.5 -80h207zM511 145q-15 -78 -73 -118.5t-148 -40.5q-123 0 -187 68.5t-64 185.5q0 55 18 100t50.5 76.5t78 48.5t101.5 17q44 0 85.5 -13.5t73.5 -43t51.5 -76t19.5 -112.5v-41h-340q0 -57 31.5 -88.5t85.5 -31.5
q34 0 58 15.5t34 53.5h125z" />
    <glyph glyph-name="f" unicode="f" horiz-adv-x="389" 
d="M366 378h-105v-288h85v-90h-303v90h85v288h-85v90h85v50q0 78 44.5 121t139.5 43q22 0 44.5 -2.5t44.5 -6.5v-99q-15 5 -29 6.5t-23 1.5q-47 0 -67.5 -16t-20.5 -63v-35h105v-90z" />
    <glyph glyph-name="g" unicode="g" horiz-adv-x="611" 
d="M279 102q55 0 84.5 38t29.5 104q0 28 -6 54t-19.5 45t-35 30.5t-52.5 11.5q-56 0 -85 -40.5t-29 -105.5q0 -28 7 -53t21.5 -43.5t35.5 -29.5t49 -11zM397 396v72h186v-90h-65v-335q0 -104 -61 -165.5t-187 -61.5q-103 0 -158 35.5t-60 119.5h145q3 -37 24 -51t62 -14
q22 0 41 9.5t32.5 25.5t21 37t7.5 44v53q-17 -20 -33.5 -33t-34.5 -20.5t-39.5 -11t-48.5 -3.5q-48 0 -85 18.5t-63 50t-39.5 72.5t-13.5 86q0 54 13 99t39.5 78t66.5 51t95 18q56 0 92 -23t61 -61h2z" />
    <glyph glyph-name="h" unicode="h" horiz-adv-x="611" 
d="M214 668v-268h2q23 44 61 63t86 19q85 0 126 -44t41 -125v-223h65v-90h-258v90h60v202q0 45 -19.5 70t-54.5 25q-28 0 -48.5 -12t-34 -29.5t-20 -38t-6.5 -37.5v-180h60v-90h-258v90h65v488h-65v90h198z" />
    <glyph glyph-name="i" unicode="i" horiz-adv-x="333" 
d="M233 468v-378h65v-90h-263v90h65v288h-65v90h198zM233 668v-133h-138v133h138z" />
    <glyph glyph-name="j" unicode="j" horiz-adv-x="278" 
d="M214 468v-485q0 -47 -8 -79t-25.5 -51.5t-44.5 -28t-66 -8.5q-18 0 -35.5 2.5t-34.5 4.5v88q4 -1 8 -1h11q40 0 51 21t11 62v385h-65v90h198zM214 668v-133h-138v133h138z" />
    <glyph glyph-name="k" unicode="k" horiz-adv-x="612" 
d="M222 668v-399l138 107v2h-63v90h265v-90h-50l-113 -84l134 -204h55v-90h-254v90h55l-83 129l-84 -66v-63h55v-90h-253v90h65v488h-65v90h198z" />
    <glyph glyph-name="l" unicode="l" horiz-adv-x="333" 
d="M233 668v-578h65v-90h-263v90h65v488h-65v90h198z" />
    <glyph glyph-name="m" unicode="m" horiz-adv-x="945" 
d="M528 395q47 87 151 87q48 0 81.5 -12t54.5 -33t30.5 -50t9.5 -63v-234h65v-90h-258v90h60v203q0 94 -80 94q-51 0 -77 -34.5t-26 -87.5v-175h60v-90h-253v90h60v205q0 16 -5 32.5t-15 29.5t-25.5 21.5t-36.5 8.5q-25 0 -44 -10.5t-31.5 -27.5t-19 -40.5t-6.5 -48.5v-170
h60v-90h-258v90h65v288h-65v90h186v-79h2q24 45 66 69t93 24q54 0 92 -18.5t64 -68.5z" />
    <glyph glyph-name="n" unicode="n" horiz-adv-x="668" 
d="M624 0h-258v90h60v203q0 17 -5 34t-15 30.5t-25.5 21.5t-36.5 8q-26 0 -44.5 -10.5t-31.5 -28t-19 -40.5t-6 -49v-169h60v-90h-258v90h65v288h-65v90h186v-79h2q24 45 66 69t93 24q92 0 129.5 -47.5t37.5 -135.5v-209h65v-90z" />
    <glyph glyph-name="o" unicode="o" 
d="M278 81q30 0 51 12.5t34.5 33.5t20 48.5t6.5 58.5q0 27 -5.5 54t-18 49t-34.5 36t-55 14q-52 0 -81.5 -40.5t-29.5 -112.5q0 -33 6.5 -61t20.5 -48.5t35 -32t50 -11.5zM528 234q0 -58 -18 -104t-51 -78t-79 -49t-102 -17t-102 17.5t-79 49.5t-51 78t-18 103t17.5 102.5
t50.5 78t79 50t103 17.5q56 0 102 -17t79 -49t51 -78t18 -104z" />
    <glyph glyph-name="p" unicode="p" horiz-adv-x="611" 
d="M345 81q45 0 72.5 39t27.5 114q0 32 -6 60t-19.5 48.5t-35 32.5t-51.5 12q-54 0 -84.5 -39t-30.5 -108q0 -78 28 -118.5t99 -40.5zM583 227q0 -48 -12.5 -91.5t-38 -77t-63 -53t-88.5 -19.5q-29 0 -51 4.5t-39.5 14t-32.5 24.5t-30 36h-2v-145h72v-90h-270v90h65v458h-65
v90h186v-83h2q29 51 67 74t90 23q98 0 154 -66t56 -189z" />
    <glyph glyph-name="q" unicode="q" horiz-adv-x="611" 
d="M266 81q66 0 96.5 37t30.5 122q0 65 -29 106t-88 41q-52 0 -81 -39t-29 -114t27.5 -114t72.5 -39zM397 385v83h186v-90h-65v-458h65v-90h-270v90h72v145h-2q-15 -21 -30 -36t-32.5 -24.5t-39.5 -14t-51 -4.5q-51 0 -89 20t-63 53.5t-37.5 77t-12.5 90.5q0 120 55 187.5
t155 67.5q52 0 90 -23t67 -74h2z" />
    <glyph glyph-name="r" unicode="r" horiz-adv-x="444" 
d="M234 377h2q21 45 56.5 75t87.5 30q30 0 57 -6v-109q-15 4 -30 4.5t-29 0.5q-44 0 -70.5 -17.5t-41 -42.5t-19 -51t-4.5 -43v-128h80v-90h-278v90h65v288h-65v90h189v-91z" />
    <glyph glyph-name="s" unicode="s" horiz-adv-x="500" 
d="M213 482q42 0 72.5 -14t53.5 -49h2v49h100v-155h-105q0 42 -24.5 60.5t-61.5 18.5q-72 0 -72 -50q0 -28 28.5 -38t85.5 -19q37 -6 67 -15.5t51.5 -26.5t33 -43t11.5 -64q0 -32 -12.5 -59.5t-34.5 -47.5t-52.5 -31.5t-67.5 -11.5q-52 0 -85 17.5t-54 46.5h-2v-50h-100v165
h105q0 -44 29.5 -66.5t70.5 -22.5q13 0 25.5 2.5t22.5 9t16 17t6 25.5t-8 24.5t-23.5 16t-39 10.5l-53.5 9q-78 13 -115.5 46.5t-37.5 101.5q0 36 14 63t37.5 45t54 27t62.5 9z" />
    <glyph glyph-name="t" unicode="t" horiz-adv-x="389" 
d="M218 468h125v-90h-125v-234q0 -28 7 -45.5t32 -17.5q22 0 31 19t9 48v2h80v-16q0 -73 -33.5 -110.5t-112.5 -37.5q-32 0 -59 10t-46.5 28.5t-30 44t-10.5 55.5v254h-75v90h75v91l133 47v-138z" />
    <glyph glyph-name="u" unicode="u" horiz-adv-x="611" 
d="M214 468v-292q0 -40 22 -67.5t60 -27.5q48 0 74.5 35.5t26.5 93.5v168h-60v90h193v-378h65v-90h-186v79h-2q-24 -45 -66 -69t-93 -24q-93 0 -130 47.5t-37 135.5v209h-65v90h198z" />
    <glyph glyph-name="v" unicode="v" horiz-adv-x="612" 
d="M279 468v-90h-70l102 -269l104 269h-70v90h250v-90h-50l-160 -378h-160l-158 378h-50v90h262z" />
    <glyph glyph-name="w" unicode="w" horiz-adv-x="889" 
d="M258 468v-90h-65l71 -273h2l92 363h185l92 -363h2l71 273h-65v90h232v-90h-45l-117 -378h-175l-92 375h-2l-96 -375h-175l-114 378h-45v90h244z" />
    <glyph glyph-name="x" unicode="x" horiz-adv-x="612" 
d="M285 468v-90h-45l76 -81l74 81h-45v90h228v-90h-45l-136 -135l147 -153h45v-90h-257v90h60l-91 95l-89 -95h60v-90h-239v90h45l148 152l-134 136h-45v90h243z" />
    <glyph glyph-name="y" unicode="y" horiz-adv-x="611" 
d="M277 468v-90h-70l103 -239l107 239h-70v90h249v-90h-45l-231 -471q-23 -47 -55.5 -69t-94.5 -22q-19 0 -38 2t-38 5v95q15 -2 31.5 -4.5t37.5 -2.5q31 0 49 26.5t29 59.5l-181 381h-45v90h262z" />
    <glyph glyph-name="z" unicode="z" horiz-adv-x="557" 
d="M496 468v-100l-277 -278h173v80h110v-170h-447v105l274 273h-158v-70h-110v160h435z" />
    <glyph glyph-name="braceleft" unicode="{" horiz-adv-x="333" 
d="M323 647h-56q-26 0 -40 -16.5t-14 -53.5v-156q0 -105 -97 -119v-2q49 -7 73 -37.5t24 -78.5v-158q0 -29 11 -50t43 -21h56v-75h-81q-23 0 -45.5 9t-41.5 26t-30.5 42t-11.5 58v155q0 42 -29 64.5t-65 24.5v85q41 2 67.5 26.5t26.5 62.5v156q0 29 11 53.5t29 42t41 27.5
t47 10h82v-75z" />
    <glyph glyph-name="bar" unicode="|" horiz-adv-x="222" 
d="M161 750v-1000h-100v1000h100z" />
    <glyph glyph-name="braceright" unicode="}" horiz-adv-x="333" 
d="M10 -45h56q26 0 40 16.5t14 53.5v156q0 105 97 119v2q-49 7 -73 37.5t-24 78.5v158q0 29 -11 50t-43 21h-56v75h81q22 0 45 -9t42 -26t30.5 -42t11.5 -58v-155q0 -42 29 -64.5t65 -24.5v-85q-41 -2 -67.5 -26.5t-26.5 -62.5v-156q0 -29 -11 -53.5t-29 -42t-41 -27.5
t-47 -10h-82v75z" />
    <glyph glyph-name="asciitilde" unicode="~" horiz-adv-x="600" 
d="M80 249q23 41 52 61.5t67 20.5q27 0 59 -11t71 -30q19 -9 38 -16.5t35 -7.5q28 0 47.5 21.5t36.5 47.5l34 -77q-33 -48 -60.5 -65t-58.5 -17q-20 0 -40.5 6t-53.5 24q-35 19 -60 27t-51 8q-24 0 -44 -15.5t-37 -53.5z" />
    <glyph glyph-name="exclamdown" unicode="&#xa1;" horiz-adv-x="390" 
d="M240 296l30 -466h-150l30 466h90zM269 481v-133h-146v133h146z" />
    <glyph glyph-name="cent" unicode="&#xa2;" 
d="M324 558v-88q45 -16 69 -56h2v54h100v-181h-105q-2 50 -23 77.5t-73 27.5q-51 0 -77.5 -40.5t-26.5 -115.5q0 -155 107 -155q35 0 59.5 22t27.5 60h120q-5 -71 -50.5 -119t-129.5 -58v-76h-80v78q-47 8 -83 30t-60 53.5t-36.5 71t-12.5 82.5q0 118 50 184t142 73v76h80z
" />
    <glyph glyph-name="sterling" unicode="&#xa3;" 
d="M324 668q96 0 151.5 -44.5t55.5 -147.5h-133q0 46 -17 71.5t-64 25.5q-40 0 -62 -28t-22 -88v-58h110v-95h-110v-209h159v105h120v-200h-487v95h75v209h-75v95h75v60q0 106 56.5 157.5t167.5 51.5z" />
    <glyph glyph-name="fraction" unicode="&#x2044;" horiz-adv-x="167" 
d="M255 674l-267 -694h-76l267 694h76z" />
    <glyph glyph-name="yen" unicode="&#xa5;" 
d="M248 654v-95h-68l97 -189h16l97 189h-68v95h231v-95h-45l-97 -180h97v-80h-140l-24 -45v-19h164v-80h-164v-60h95v-95h-323v95h95v60h-164v80h164v19l-24 45h-140v80h97l-97 180h-45v95h246z" />
    <glyph glyph-name="florin" unicode="&#x192;" 
d="M496 563q-8 2 -20 3.5t-21 1.5q-27 0 -42.5 -6.5t-20.5 -29.5l-19 -87h100l-18 -95h-100l-79 -409q-14 -70 -55.5 -97.5t-113.5 -27.5q-14 0 -32.5 2.5l-33.5 4.5l18 95q5 -1 12.5 -1.5t13.5 -0.5q19 0 31 7.5t19.5 21t11.5 32.5l9 42l64 331h-90l18 95h90l21 99
q8 36 23 60t37 38.5t50.5 20t64.5 5.5q21 0 41 -2.5t40 -7.5z" />
    <glyph glyph-name="section" unicode="&#xa7;" 
d="M374 270q0 40 -72 68q-35 13 -50 18t-29 13q-17 -14 -29 -27.5t-12 -36.5q0 -30 24.5 -46.5t65.5 -29.5l34 -10.5t22 -9.5q17 11 31.5 25.5t14.5 35.5zM356 504q0 42 -24.5 58t-66.5 16q-29 0 -47.5 -12t-18.5 -36q0 -15 6.5 -24t16.5 -15q11 -7 42 -18l77 -28l47.5 -19
t33 -14.5t22.5 -13.5t18 -15q32 -32 32 -83q0 -42 -22 -72t-65 -43q40 -19 59.5 -48.5t19.5 -78.5q0 -42 -14.5 -73.5t-40.5 -52.5t-62 -31.5t-79 -10.5q-110 0 -165.5 39t-55.5 131h125q0 -42 23.5 -61t66.5 -19q31 0 54 13.5t23 41.5q0 37 -32 53q-18 9 -46.5 18t-70.5 24
l-50 20t-42 22q-25 17 -41.5 44t-16.5 65q0 42 23.5 71t60.5 43q-38 16 -55 45t-17 71q0 40 16 70t43 49t63.5 28.5t78.5 9.5q43 0 81 -9.5t65.5 -29t43.5 -49t16 -69.5v-7h-125z" />
    <glyph glyph-name="currency" unicode="&#xa4;" 
d="M278 179q31 0 57.5 12t45.5 32.5t29.5 47.5t10.5 56q0 30 -10.5 56.5t-30 47t-46 32.5t-57.5 12q-29 0 -54.5 -11.5t-45 -31.5t-31 -47t-11.5 -58q0 -30 11 -57t30.5 -47.5t45.5 -32t56 -11.5zM133 529q26 21 65.5 33.5t79.5 12.5q42 0 80.5 -12.5t64.5 -33.5l53 54
l58 -57l-54 -55q23 -25 34.5 -64t11.5 -80q0 -44 -12.5 -81.5t-33.5 -61.5l54 -58l-58 -55l-53 57q-25 -23 -63.5 -36t-81.5 -13q-42 0 -80.5 12.5t-64.5 36.5l-56 -57l-55 55l56 58q-23 27 -35.5 64t-12.5 79q0 41 11.5 79.5t36.5 64.5l-56 55l55 57z" />
    <glyph glyph-name="quotesingle" unicode="'" horiz-adv-x="278" 
d="M189 654v-276h-100v276h100z" />
    <glyph glyph-name="quotedblleft" unicode="&#x201c;" 
d="M470 654l-50 -130h56v-146h-146v146l50 130h90zM220 654l-50 -130h56v-146h-146v146l50 130h90z" />
    <glyph glyph-name="guillemotleft" unicode="&#xab;" 
d="M460 429l-84 -196l84 -196h-100l-84 196l84 196h100zM280 429l-84 -196l84 -196h-100l-84 196l84 196h100z" />
    <glyph glyph-name="guilsinglleft" unicode="&#x2039;" horiz-adv-x="278" 
d="M231 429l-84 -196l84 -196h-100l-84 196l84 196h100z" />
    <glyph glyph-name="guilsinglright" unicode="&#x203a;" horiz-adv-x="278" 
d="M147 429l84 -196l-84 -196h-100l84 196l-84 196h100z" />
    <glyph glyph-name="endash" unicode="&#x2013;" horiz-adv-x="500" 
d="M500 309v-80h-500v80h500z" />
    <glyph glyph-name="dagger" unicode="&#x2020;" 
d="M338 654v-165h150v-95h-150v-394h-120v394h-150v95h150v165h120z" />
    <glyph glyph-name="daggerdbl" unicode="&#x2021;" 
d="M338 654v-144h150v-90h-150v-185h150v-90h-150v-145h-120v145h-150v90h150v185h-150v90h150v144h120z" />
    <glyph glyph-name="periodcentered" unicode="&#xb7;" horiz-adv-x="278" 
d="M212 260q0 -30 -21.5 -51.5t-51.5 -21.5t-51.5 21.5t-21.5 51.5t21.5 51.5t51.5 21.5t51.5 -21.5t21.5 -51.5z" />
    <glyph glyph-name="paragraph" unicode="&#xb6;" horiz-adv-x="620" 
d="M567 -120h-100v694h-105v-694h-100v417q-104 0 -161.5 47t-57.5 128q0 95 60.5 138.5t176.5 43.5h287v-774z" />
    <glyph glyph-name="bullet" unicode="&#x2022;" horiz-adv-x="500" 
d="M413 328q0 -32 -13.5 -61.5t-36 -52.5t-52.5 -36.5t-62 -13.5t-61.5 13.5t-52 36.5t-36 52.5t-13.5 61.5t13.5 61.5t36 52t52 36t61.5 13.5q33 0 62.5 -13.5t52 -36.5t36 -52.5t13.5 -60.5z" />
    <glyph glyph-name="quotesinglbase" unicode="&#x201a;" horiz-adv-x="278" 
d="M212 146v-146l-50 -130h-90l50 130h-56v146h146z" />
    <glyph glyph-name="quotedblbase" unicode="&#x201e;" 
d="M476 146v-146l-50 -130h-90l50 130h-56v146h146zM226 146v-146l-50 -130h-90l50 130h-56v146h146z" />
    <glyph glyph-name="quotedblright" unicode="&#x201d;" 
d="M476 654v-146l-50 -130h-90l50 130h-56v146h146zM226 654v-146l-50 -130h-90l50 130h-56v146h146z" />
    <glyph glyph-name="guillemotright" unicode="&#xbb;" 
d="M376 429l84 -196l-84 -196h-100l84 196l-84 196h100zM196 429l84 -196l-84 -196h-100l84 196l-84 196h100z" />
    <glyph glyph-name="ellipsis" unicode="&#x2026;" horiz-adv-x="1000" 
d="M906 146v-146h-146v146h146zM573 146v-146h-146v146h146zM240 146v-146h-146v146h146z" />
    <glyph glyph-name="perthousand" unicode="&#x2030;" horiz-adv-x="1000" 
d="M848 51q62 0 62 99q0 18 -2 35.5t-8.5 31.5t-18.5 23t-33 9q-27 0 -44.5 -22.5t-17.5 -76.5q0 -16 1.5 -33.5t7.5 -32t18.5 -24t34.5 -9.5zM514 51q62 0 62 99q0 17 -2 34.5t-8.5 32t-18.5 23.5t-33 9q-27 0 -44.5 -22.5t-17.5 -76.5q0 -21 2.5 -39t9 -31.5t18.5 -21
t32 -7.5zM995 150q0 -73 -38 -118.5t-109 -45.5q-38 0 -65.5 13t-45.5 35t-27 52t-9 64t8.5 64t26 52.5t45.5 35t67 12.5q74 0 110.5 -44t36.5 -120zM661 150q0 -35 -9.5 -65t-28 -52t-46 -34.5t-63.5 -12.5q-37 0 -64.5 12.5t-46 34.5t-27.5 52t-9 65q0 78 37.5 121
t109.5 43q76 0 111.5 -45t35.5 -119zM152 405q62 0 62 99q0 20 -2.5 38t-9 31.5t-19 21.5t-31.5 8q-32 0 -47 -26t-15 -73q0 -16 1.5 -33.5t7.5 -32t18.5 -24t34.5 -9.5zM299 504q0 -73 -38 -118.5t-109 -45.5q-38 0 -65.5 13t-45.5 35t-27 52t-9 64q0 75 36.5 119.5
t110.5 44.5t110.5 -44t36.5 -120zM576 674l-408 -694h-85l408 694h85z" />
    <glyph glyph-name="questiondown" unicode="&#xbf;" horiz-adv-x="500" 
d="M187 348v133h146v-133h-146zM243 -184q-41 0 -79 11t-66.5 32t-45.5 52.5t-17 73.5q0 46 20 79.5t61 70.5q43 39 62 69.5t19 71.5v20h125v-37q0 -26 -3 -45.5t-11.5 -38.5t-24.5 -39t-43 -46q-18 -18 -30.5 -32t-20.5 -27t-12 -26.5t-4 -30.5q0 -32 19.5 -50t53.5 -18
q47 0 63 27.5t18 82.5h138q0 -108 -57.5 -154t-164.5 -46z" />
    <glyph glyph-name="grave" unicode="`" horiz-adv-x="278" 
d="M125 675l82 -145h-85l-135 145h138z" />
    <glyph glyph-name="acute" unicode="&#xb4;" horiz-adv-x="278" 
d="M287 675l-135 -145h-85l82 145h138z" />
    <glyph glyph-name="circumflex" unicode="&#x2c6;" horiz-adv-x="278" 
d="M192 675l105 -145h-90l-67 85l-69 -85h-90l109 145h102z" />
    <glyph glyph-name="tilde" unicode="&#x2dc;" horiz-adv-x="278" 
d="M-39 536q8 55 37 88t75 33q18 0 36.5 -5.5t41.5 -14.5t39.5 -14t31.5 -5q18 0 29.5 16t15.5 32h50q-3 -26 -12 -48.5t-23 -39t-32.5 -26t-40.5 -9.5q-20 0 -37.5 5t-39.5 14q-23 9 -39.5 14.5t-32.5 5.5q-21 0 -32 -14.5t-17 -31.5h-50z" />
    <glyph glyph-name="macron" unicode="&#xaf;" horiz-adv-x="278" 
d="M308 642v-65h-338v65h338z" />
    <glyph glyph-name="dieresis" unicode="&#xa8;" horiz-adv-x="278" 
d="M296 666v-115h-110v115h110zM92 666v-115h-110v115h110z" />
    <glyph glyph-name="ring" unicode="&#x2da;" horiz-adv-x="278" 
d="M139 565q24 0 40.5 17t16.5 40t-16.5 40t-40.5 17q-23 0 -40 -17t-17 -40t17 -40t40 -17zM246 622q0 -23 -8.5 -42.5t-23 -34t-34 -22.5t-41.5 -8t-41.5 8t-34 22.5t-23 34t-8.5 42.5q0 22 8.5 41.5t23 34t34 23t41.5 8.5q23 0 42.5 -8.5t34 -23t22.5 -34t8 -41.5z" />
    <glyph glyph-name="cedilla" unicode="&#xb8;" horiz-adv-x="278" 
d="M167 0l-50 -61l2 -2q9 2 19 4t21 2q35 0 58 -21t23 -54q0 -23 -11 -39.5t-28.5 -27t-39.5 -15t-45 -4.5q-26 0 -52 5t-50 16l21 41q16 -9 34.5 -13t35.5 -4q20 0 37.5 6t17.5 27q0 18 -13.5 28t-30.5 10q-9 0 -20 -1.5t-21 -6.5l-19 25l63 85h48z" />
    <glyph glyph-name="caron" unicode="&#x2c7;" horiz-adv-x="278" 
d="M71 675l67 -85l69 85h90l-109 -145h-102l-105 145h90z" />
    <glyph glyph-name="emdash" unicode="&#x2014;" horiz-adv-x="1000" 
d="M1000 309v-80h-1000v80h1000z" />
    <glyph glyph-name="AE" unicode="&#xc6;" horiz-adv-x="1000" 
d="M440 574l-136 -279h169l-31 279h-2zM955 654v-196h-115v101h-267l20 -178h88v88h105v-266h-105v88h-78l25 -196h212v119h115v-214h-549v95h90l-12 105h-227l-51 -105h82v-95h-269v95h54l279 559h603z" />
    <glyph glyph-name="ordfeminine" unicode="&#xaa;" horiz-adv-x="360" 
d="M180 507q-41 0 -60 -10.5t-19 -25.5q0 -3 1 -7.5t5.5 -9.5t13 -8.5t22.5 -3.5q39 0 58 18.5t19 46.5h-40zM310 448h39v-60h-127v41h-2q-18 -27 -41 -37t-59 -10q-22 0 -42 5.5t-35 16.5t-23.5 27t-8.5 37q0 28 13 46.5t35.5 29t53 14.5t66.5 4h41v10q0 23 -13.5 32
t-42.5 9q-50 0 -53 -36h-90q4 53 45.5 72t107.5 19q67 0 101.5 -26t34.5 -94v-100z" />
    <glyph glyph-name="Oslash" unicode="&#xd8;" horiz-adv-x="778" 
d="M249 136q25 -26 59 -40.5t81 -14.5q97 0 148 64.5t51 181.5q0 92 -32 152zM520 527q-23 21 -55 33.5t-77 12.5q-96 0 -147 -64t-51 -182q0 -40 6.5 -75t20.5 -64zM668 692l44 -39l-71 -79q46 -45 69.5 -108.5t23.5 -138.5q0 -77 -24 -140t-69 -107.5t-109 -69t-143 -24.5
q-67 0 -121 16.5t-96 47.5l-73 -81l-45 37l74 83q-42 46 -63 106t-21 132q0 76 23.5 139t68 108t108.5 69.5t145 24.5q63 0 114 -14.5t93 -41.5z" />
    <glyph glyph-name="OE" unicode="&#x152;" horiz-adv-x="1000" 
d="M379 81q26 0 53 2.5t38 6.5v475q-20 4 -39.5 6t-41.5 2q-47 0 -84 -13.5t-62.5 -44t-39 -78.5t-13.5 -117q0 -117 46.5 -178t142.5 -61zM948 458h-115v101h-225v-178h74v89h105v-267h-105v88h-74v-196h225v119h115v-214h-363q-19 0 -33.5 -0.5l-28 -1t-27.5 -2l-32 -3.5
q-38 -4 -64.5 -5.5t-44.5 -1.5q-77 0 -135 27.5t-97 74t-59 108t-20 128.5q0 166 83 255t243 89q27 0 51 -2.5l53 -5.5q44 -5 69 -5.5t44 -0.5h361v-196z" />
    <glyph glyph-name="ordmasculine" unicode="&#xba;" horiz-adv-x="360" 
d="M180 447q19 0 32.5 7t22 18t12 25t3.5 28q0 11 -3 24.5t-10.5 25.5t-21.5 20t-36 8q-33 0 -51 -22t-18 -56q0 -31 16.5 -54.5t53.5 -23.5zM345 525q0 -34 -12.5 -60.5t-34 -45t-52 -28t-66.5 -9.5t-66.5 9.5t-52 28t-34 45t-12.5 60.5q0 68 46 105.5t119 37.5
q36 0 66.5 -9.5t52 -28t34 -45t12.5 -60.5z" />
    <glyph glyph-name="ae" unicode="&#xe6;" horiz-adv-x="834" 
d="M243 76q28 0 48 10.5t33.5 27t20 38t6.5 44.5h-41q-26 0 -52.5 -1t-47.5 -7t-34.5 -18.5t-13.5 -35.5q0 -26 19.5 -42t61.5 -16zM671 281q-2 54 -25 82.5t-71 28.5q-42 0 -69.5 -29.5t-29.5 -81.5h195zM420 395q20 43 62 65t112 22q101 0 152 -64t51 -189
q0 -5 -0.5 -10.5t-0.5 -10.5v-12h-320q4 -60 26.5 -90t71.5 -30q36 0 62.5 16t30.5 53h125q-4 -75 -60 -117t-147 -42q-42 0 -72.5 7t-53 20.5t-39 33t-29.5 45.5q-25 -59 -73 -82.5t-109 -23.5q-77 0 -124.5 34.5t-47.5 105.5q0 51 20.5 82t55 47t79.5 21t93 5h66v31
q0 24 -7.5 39.5t-20 24.5t-28.5 12.5t-32 3.5q-32 0 -54 -15t-25 -46h-125q2 75 57 113t147 38q127 0 157 -87z" />
    <glyph glyph-name="dotlessi" unicode="&#x131;" horiz-adv-x="333" 
d="M233 468v-378h65v-90h-263v90h65v288h-65v90h198z" />
    <glyph glyph-name="oslash" unicode="&#xf8;" 
d="M199 118q13 -17 32.5 -27t46.5 -10q29 0 50 11.5t35 32t20.5 48.5t6.5 61q0 38 -12 76zM351 357q-27 30 -74 30q-30 0 -51.5 -13t-34.5 -34.5t-19 -49t-6 -56.5q0 -34 9 -67zM491 508l38 -35l-61 -66q60 -66 60 -173q0 -56 -17.5 -101.5t-50 -78t-78.5 -50.5t-104 -18
q-45 0 -84.5 12t-71.5 37l-71 -77l-37 35l71 76q-27 32 -42 73t-15 92q0 58 18 104t51 78t79 49t102 17q88 0 150 -42z" />
    <glyph glyph-name="oe" unicode="&#x153;" horiz-adv-x="834" 
d="M681 281q0 18 -4 37t-13.5 34.5t-26.5 25t-43 9.5q-39 0 -66 -28.5t-28 -77.5h181zM265 76q57 0 84.5 44t27.5 114q0 27 -5.5 54.5t-18 49t-34.5 35.5t-55 14q-52 0 -81.5 -40.5t-29.5 -112.5q0 -70 27.5 -114t84.5 -44zM438 389q23 51 68.5 72t96.5 21q53 0 91.5 -17.5
t61.5 -46.5q8 -10 16.5 -23.5t16 -37t12.5 -60t5 -92.5v-9h-306q0 -52 24.5 -86t73.5 -34q35 0 56 20t21 49h125q-7 -78 -59.5 -118.5t-137.5 -40.5q-56 0 -96 18t-69 71q-28 -50 -74.5 -69.5t-98.5 -19.5q-55 0 -99 17t-74.5 49.5t-47 78.5t-16.5 103q0 58 16.5 104
t47.5 78t75 49t98 17q57 0 104 -22.5t69 -70.5z" />
    <glyph glyph-name="germandbls" unicode="&#xdf;" horiz-adv-x="611" 
d="M543 509q0 -57 -38 -94t-107 -47v-2q86 -8 134 -52t48 -120q0 -96 -54 -145t-163 -49h-33v90h9q45 0 74 27.5t29 75.5q0 118 -127 118h-20v100h7q48 0 75.5 21.5t27.5 72.5q0 45 -24.5 66t-64.5 21q-42 0 -65 -26.5t-23 -78.5v-397h55v-90h-253v90h65v408q0 91 63 137.5
t175 46.5q42 0 80.5 -10t67 -31.5t45.5 -54t17 -77.5z" />
    <glyph glyph-name="uni00B9" unicode="&#xb9;" horiz-adv-x="360" 
d="M252 662v-332h62v-65h-220v65h63v262q-20 -20 -42.5 -35.5t-48.5 -31.5v79l46 29.5l44 28.5h96z" />
    <glyph glyph-name="logicalnot" unicode="&#xac;" horiz-adv-x="600" 
d="M553 412v-305h-100v205h-406v100h506z" />
    <glyph glyph-name="uni00B5" unicode="&#xb5;" horiz-adv-x="611" 
d="M214 468v-294q0 -15 4.5 -31.5t14.5 -30t25.5 -22.5t37.5 -9q25 0 44 10t31.5 27.5t19 41t6.5 49.5v169h-60v90h193v-378h65v-90h-186v79h-2q-24 -46 -67 -69.5t-90 -23.5h-11.5t-11.5 1q-6 1 -13 2v-159h-133v548h-65v90h198z" />
    <glyph glyph-name="trademark" unicode="&#x2122;" horiz-adv-x="1000" 
d="M573 654l94 -244l92 244h134v-386h-90v271h-2l-100 -271h-70l-100 271h-2v-271h-90v386h134zM361 654v-70h-109v-316h-95v316h-109v70h313z" />
    <glyph glyph-name="Eth" unicode="&#xd0;" horiz-adv-x="778" 
d="M360 95q104 0 158.5 61.5t54.5 170.5q0 112 -54.5 172t-158.5 60h-112v-167h133v-90h-133v-207h112zM381 654q74 0 136 -19t107 -59t70 -101.5t25 -146.5q0 -81 -24.5 -142t-70 -102.5t-110.5 -62.5t-146 -21h-340v95h82v207h-82v90h82v167h-82v95h353z" />
    <glyph glyph-name="onehalf" unicode="&#xbd;" horiz-adv-x="835" 
d="M225 662v-332h62v-65h-220v65h63v262q-20 -20 -42.5 -35.5t-48.5 -31.5v79l46 29.5l44 28.5h96zM562 674l-267 -694h-76l267 694h76zM787 287q0 -20 -11 -43t-39 -52q-20 -20 -40 -37.5t-43 -35.5l-39 -30t-30 -24h126v50h85v-115h-314v78q1 1 11.5 8.5l24.5 18l29 22
l27 21.5q24 19 45 37.5t37.5 36t26 34.5t9.5 33q0 27 -16.5 38t-36.5 11q-55 0 -58 -65h-95q2 61 38 95.5t123 34.5q60 0 100 -29.5t40 -86.5z" />
    <glyph glyph-name="plusminus" unicode="&#xb1;" horiz-adv-x="600" 
d="M553 106v-100h-506v100h506zM350 506v-133h203v-100h-203v-133h-100v133h-203v100h203v133h100z" />
    <glyph glyph-name="Thorn" unicode="&#xde;" horiz-adv-x="667" 
d="M331 240q73 0 109 18.5t36 59.5q0 33 -12.5 52.5t-32.5 29t-46.5 12t-53.5 2.5h-75v-174h75zM361 654v-95h-105v-55h109q131 0 190 -45t59 -129q0 -92 -58.5 -136t-173.5 -44h-126v-55h105v-95h-333v95h90v464h-90v95h333z" />
    <glyph glyph-name="onequarter" unicode="&#xbc;" horiz-adv-x="835" 
d="M236 662v-332h62v-65h-220v65h63v262q-20 -20 -42.5 -35.5t-48.5 -31.5v79l46 29.5l44 28.5h96zM520 171h119v144h-2zM734 395v-224h51v-55h-51v-51h48v-65h-201v65h58v51h-193v59l178 220h110zM583 674l-267 -694h-76l267 694h76z" />
    <glyph glyph-name="divide" unicode="&#xf7;" horiz-adv-x="600" 
d="M369 57q0 -29 -20.5 -49t-48.5 -20q-29 0 -49 20t-20 49q0 28 20 48.5t49 20.5q28 0 48.5 -20.5t20.5 -48.5zM553 303v-100h-506v100h506zM369 449q0 -29 -20.5 -49t-48.5 -20q-29 0 -49 20t-20 49q0 28 20 48.5t49 20.5q28 0 48.5 -20.5t20.5 -48.5z" />
    <glyph glyph-name="brokenbar" unicode="&#xa6;" horiz-adv-x="222" 
d="M161 175v-350h-100v350h100zM161 675v-350h-100v350h100z" />
    <glyph glyph-name="degree" unicode="&#xb0;" horiz-adv-x="400" 
d="M200 426q38 0 64.5 26.5t26.5 64.5t-26.5 64.5t-65.5 26.5q-18 0 -34.5 -7t-29 -19.5t-19.5 -29t-7 -35.5t7 -35.5t19.5 -29t29 -19.5t35.5 -7zM351 517q0 -31 -12 -58.5t-32 -48t-48 -32.5t-59 -12t-58.5 12t-48 32.5t-32.5 48t-12 58.5t12 59t32.5 48t48 32t58.5 12
t59 -12t48 -32t32 -48t12 -59z" />
    <glyph glyph-name="thorn" unicode="&#xfe;" horiz-adv-x="611" 
d="M345 81q47 0 73.5 40.5t26.5 112.5q0 27 -5 54t-17.5 49t-34 36t-55.5 14q-57 0 -86 -41t-29 -106q0 -76 27.5 -117.5t99.5 -41.5zM226 668v-263h2q20 36 56.5 56.5t88.5 20.5q100 0 155 -67.5t55 -187.5q0 -48 -12.5 -91.5t-38 -77t-63 -53t-88.5 -19.5q-59 0 -91.5 19
t-61.5 60h-2v-145h72v-90h-270v90h65v658h-65v90h198z" />
    <glyph glyph-name="threequarters" unicode="&#xbe;" horiz-adv-x="834" 
d="M333 556q0 -39 -24 -61.5t-67 -27.5v-2q42 -2 68.5 -26.5t26.5 -59.5q0 -30 -12 -52.5t-33.5 -37.5t-51 -22.5t-64.5 -7.5q-78 0 -115.5 32.5t-37.5 91.5h95v-3q0 -26 14.5 -41t44.5 -15q28 0 46.5 14t18.5 40q0 18 -8.5 29t-22 17t-30.5 7.5t-34 1.5v65q18 0 34.5 2
t29 8t20 17.5t7.5 29.5q0 48 -59 48q-30 0 -42.5 -16.5t-13.5 -40.5h-95q0 31 13 54t34.5 38t49.5 22.5t59 7.5q32 0 59.5 -7t47.5 -21t31 -35t11 -49zM546 171h119v144h-2zM760 395v-224h51v-55h-51v-51h48v-65h-201v65h58v51h-193v59l178 220h110zM600 674l-267 -694h-76
l267 694h76z" />
    <glyph glyph-name="uni00B2" unicode="&#xb2;" horiz-adv-x="360" 
d="M328 552q0 -20 -11 -43t-39 -52q-20 -20 -40 -37.5t-43 -35.5l-39 -30t-30 -24h126v50h85v-115h-314v78q1 1 11.5 8.5l24.5 18l29 22l27 21.5q24 19 45 37.5t37.5 36t26 34.5t9.5 33q0 27 -16.5 38t-36.5 11q-55 0 -58 -65h-95q2 61 38 95.5t123 34.5q60 0 100 -29.5
t40 -86.5z" />
    <glyph glyph-name="registered" unicode="&#xae;" horiz-adv-x="800" 
d="M400 61q57 0 103 21t77.5 57.5t48.5 85t17 102.5q0 58 -18 106.5t-50.5 84t-78 55.5t-100.5 20q-53 0 -98 -19.5t-77.5 -54.5t-51 -84t-18.5 -108q0 -60 18.5 -109t51.5 -84t78 -54t98 -19zM741 327q0 -69 -26.5 -131t-72.5 -108.5t-108 -74t-134 -27.5q-71 0 -133.5 27
t-108.5 73.5t-72.5 108.5t-26.5 132q0 71 27 133.5t73.5 108.5t108.5 72.5t132 26.5q71 0 133 -27t108.5 -73.5t73 -108.5t26.5 -132zM413 359q29 0 46 9.5t17 41.5q0 26 -20 35.5t-52 9.5h-60v-96h69zM406 515q71 0 110.5 -24t39.5 -88q0 -51 -27.5 -74t-72.5 -26l99 -163
h-82l-90 159h-39v-159h-80v375h142z" />
    <glyph glyph-name="eth" unicode="&#xf0;" 
d="M278 81q29 0 50 11.5t35 32t20.5 48.5t6.5 61q0 19 -4 44.5t-16.5 48t-34.5 38t-58 15.5q-29 0 -49.5 -12t-34.5 -32t-20.5 -46.5t-6.5 -55.5t6 -56.5t19 -49t34.5 -34.5t52.5 -13zM126 720q44 -11 81.5 -25t73.5 -34l123 59l49 -55l-100 -48q85 -63 130 -149t45 -191
q0 -49 -11.5 -100.5t-40 -94t-76.5 -69.5t-122 -27q-55 0 -101 18.5t-79 51.5t-51.5 78.5t-18.5 99.5q0 55 18.5 98.5t52 74t79 47t99.5 16.5q42 0 85 -26l2 2q-13 37 -40.5 68.5t-64.5 57.5l-132 -64l-49 55l108 52q-29 18 -58.5 30t-55.5 18z" />
    <glyph glyph-name="multiply" unicode="&#xd7;" 
d="M116 487l162 -164l163 164l70 -71l-162 -163l162 -163l-70 -71l-163 163l-162 -163l-71 71l163 163l-163 163z" />
    <glyph glyph-name="uni00B3" unicode="&#xb3;" horiz-adv-x="360" 
d="M333 556q0 -39 -24 -61.5t-67 -27.5v-2q42 -2 68.5 -26.5t26.5 -59.5q0 -30 -12 -52.5t-33.5 -37.5t-51 -22.5t-64.5 -7.5q-78 0 -115.5 32.5t-37.5 91.5h95v-3q0 -26 14.5 -41t44.5 -15q28 0 46.5 14t18.5 40q0 18 -8.5 29t-22 17t-30.5 7.5t-34 1.5v65q18 0 34.5 2
t29 8t20 17.5t7.5 29.5q0 48 -59 48q-30 0 -42.5 -16.5t-13.5 -40.5h-95q0 31 13 54t34.5 38t49.5 22.5t59 7.5q32 0 59.5 -7t47.5 -21t31 -35t11 -49z" />
    <glyph glyph-name="copyright" unicode="&#xa9;" horiz-adv-x="800" 
d="M499 387q-6 33 -31 49t-57 16q-48 0 -73.5 -34.5t-25.5 -88.5q0 -56 29 -91t75 -35q36 0 59.5 18t26.5 50h75q-5 -34 -20 -60.5t-36.5 -45t-49.5 -28t-58 -9.5q-43 0 -78.5 15t-60.5 42t-38.5 63.5t-13.5 79.5q0 44 13.5 80.5t38 63t59.5 41t78 14.5q63 0 108 -35.5
t55 -104.5h-75zM400 61q57 0 103 21t77.5 57.5t48.5 85t17 102.5q0 58 -18 106.5t-50.5 84t-78 55.5t-100.5 20q-53 0 -98 -19.5t-77.5 -54.5t-51 -84t-18.5 -108q0 -60 18.5 -109t51.5 -84t78 -54t98 -19zM741 327q0 -69 -26.5 -131t-72.5 -108.5t-108 -74t-134 -27.5
q-71 0 -133.5 27t-108.5 73.5t-72.5 108.5t-26.5 132q0 71 27 133.5t73.5 108.5t108.5 72.5t132 26.5q71 0 133 -27t108.5 -73.5t73 -108.5t26.5 -132z" />
    <glyph glyph-name="Aacute" unicode="&#xc1;" horiz-adv-x="778" 
d="M283 295h198l-98 251zM475 654l229 -559h55v-95h-281v95h82l-43 105h-271l-41 -105h82v-95h-268v95h55l231 559h170zM537 861l-135 -145h-85l82 145h138z" />
    <glyph glyph-name="Acircumflex" unicode="&#xc2;" horiz-adv-x="778" 
d="M283 295h198l-98 251zM475 654l229 -559h55v-95h-281v95h82l-43 105h-271l-41 -105h82v-95h-268v95h55l231 559h170zM442 861l105 -145h-90l-67 85l-69 -85h-90l109 145h102z" />
    <glyph glyph-name="Adieresis" unicode="&#xc4;" horiz-adv-x="778" 
d="M283 295h198l-98 251zM475 654l229 -559h55v-95h-281v95h82l-43 105h-271l-41 -105h82v-95h-268v95h55l231 559h170zM546 852v-115h-110v115h110zM342 852v-115h-110v115h110z" />
    <glyph glyph-name="Agrave" unicode="&#xc0;" horiz-adv-x="778" 
d="M283 295h198l-98 251zM475 654l229 -559h55v-95h-281v95h82l-43 105h-271l-41 -105h82v-95h-268v95h55l231 559h170zM375 861l82 -145h-85l-135 145h138z" />
    <glyph glyph-name="Aring" unicode="&#xc5;" horiz-adv-x="778" 
d="M283 295h198l-98 251zM475 654l229 -559h55v-95h-281v95h82l-43 105h-271l-41 -105h82v-95h-268v95h55l231 559h170zM389 751q24 0 40.5 17t16.5 40t-16.5 40t-40.5 17q-23 0 -40 -17t-17 -40t17 -40t40 -17zM496 808q0 -23 -8.5 -42.5t-23 -34t-34 -22.5t-41.5 -8
t-41.5 8t-34 22.5t-23 34t-8.5 42.5q0 22 8.5 41.5t23 34t34 23t41.5 8.5q23 0 42.5 -8.5t34 -23t22.5 -34t8 -41.5z" />
    <glyph glyph-name="Atilde" unicode="&#xc3;" horiz-adv-x="778" 
d="M283 295h198l-98 251zM475 654l229 -559h55v-95h-281v95h82l-43 105h-271l-41 -105h82v-95h-268v95h55l231 559h170zM211 722q8 55 37 88t75 33q18 0 36.5 -5.5t41.5 -14.5t39.5 -14t31.5 -5q18 0 29.5 16t15.5 32h50q-3 -26 -12 -48.5t-23 -39t-32.5 -26t-40.5 -9.5
q-20 0 -37.5 5t-39.5 14q-23 9 -39.5 14.5t-32.5 5.5q-21 0 -32 -14.5t-17 -31.5h-50z" />
    <glyph glyph-name="Ccedilla" unicode="&#xc7;" horiz-adv-x="722" 
d="M670 412h-125q-1 75 -46.5 118t-118.5 43q-93 0 -141.5 -68t-48.5 -194q0 -53 13.5 -95.5t39 -72.5t62.5 -46t85 -16q30 0 56.5 10.5t46.5 29t32 45.5t14 60h133q0 -58 -21.5 -102.5t-60 -75t-92.5 -46.5t-120 -16l-39 -47l2 -2q9 2 19 4t21 2q35 0 58 -21t23 -54
q0 -23 -11 -39.5t-28.5 -27t-39.5 -15t-45 -4.5q-26 0 -52 5t-50 16l21 41q16 -9 34.5 -13t35.5 -4q20 0 37.5 6t17.5 27q0 18 -13.5 28t-30.5 10q-9 0 -20 -1.5t-21 -6.5l-19 25l55 74q-70 7 -124 34t-90.5 70.5t-55.5 101.5t-19 127q0 79 20.5 143t60.5 109t98 69.5
t133 24.5q56 0 104.5 -18.5t84.5 -71.5v76h125v-242z" />
    <glyph glyph-name="Eacute" unicode="&#xc9;" horiz-adv-x="667" 
d="M622 654v-196h-115v101h-259v-178h99v89h105v-267h-105v88h-99v-196h259v119h115v-214h-594v95h82v464h-82v95h594zM482 861l-135 -145h-85l82 145h138z" />
    <glyph glyph-name="Ecircumflex" unicode="&#xca;" horiz-adv-x="667" 
d="M622 654v-196h-115v101h-259v-178h99v89h105v-267h-105v88h-99v-196h259v119h115v-214h-594v95h82v464h-82v95h594zM387 861l105 -145h-90l-67 85l-69 -85h-90l109 145h102z" />
    <glyph glyph-name="Edieresis" unicode="&#xcb;" horiz-adv-x="667" 
d="M622 654v-196h-115v101h-259v-178h99v89h105v-267h-105v88h-99v-196h259v119h115v-214h-594v95h82v464h-82v95h594zM491 852v-115h-110v115h110zM287 852v-115h-110v115h110z" />
    <glyph glyph-name="Egrave" unicode="&#xc8;" horiz-adv-x="667" 
d="M622 654v-196h-115v101h-259v-178h99v89h105v-267h-105v88h-99v-196h259v119h115v-214h-594v95h82v464h-82v95h594zM320 861l82 -145h-85l-135 145h138z" />
    <glyph glyph-name="Iacute" unicode="&#xcd;" horiz-adv-x="388" 
d="M345 654v-95h-82v-464h82v-95h-302v95h82v464h-82v95h302zM342 861l-135 -145h-85l82 145h138z" />
    <glyph glyph-name="Icircumflex" unicode="&#xce;" horiz-adv-x="388" 
d="M345 654v-95h-82v-464h82v-95h-302v95h82v464h-82v95h302zM247 861l105 -145h-90l-67 85l-69 -85h-90l109 145h102z" />
    <glyph glyph-name="Idieresis" unicode="&#xcf;" horiz-adv-x="388" 
d="M345 654v-95h-82v-464h82v-95h-302v95h82v464h-82v95h302zM351 852v-115h-110v115h110zM147 852v-115h-110v115h110z" />
    <glyph glyph-name="Igrave" unicode="&#xcc;" horiz-adv-x="388" 
d="M345 654v-95h-82v-464h82v-95h-302v95h82v464h-82v95h302zM192 861l82 -145h-85l-135 145h138z" />
    <glyph glyph-name="Ntilde" unicode="&#xd1;" horiz-adv-x="779" 
d="M298 654l252 -486h2v391h-82v95h289v-95h-82v-559h-182l-266 505h-2v-410h82v-95h-289v95h82v464h-82v95h278zM212 722q8 55 37 88t75 33q18 0 36.5 -5.5t41.5 -14.5t39.5 -14t31.5 -5q18 0 29.5 16t15.5 32h50q-3 -26 -12 -48.5t-23 -39t-32.5 -26t-40.5 -9.5
q-20 0 -37.5 5t-39.5 14q-23 9 -39.5 14.5t-32.5 5.5q-21 0 -32 -14.5t-17 -31.5h-50z" />
    <glyph glyph-name="Oacute" unicode="&#xd3;" horiz-adv-x="778" 
d="M389 81q97 0 148 64.5t51 181.5t-50.5 181.5t-149.5 64.5q-96 0 -147 -64t-51 -182q0 -117 51 -181.5t148 -64.5zM734 327q0 -76 -23.5 -139t-68 -108t-108.5 -69.5t-145 -24.5q-82 0 -146 25t-108.5 70.5t-67.5 108t-23 137.5q0 76 23.5 139t68 108t108.5 69.5t145 24.5
q79 0 143 -24.5t109 -69t69 -107.5t24 -140zM537 861l-135 -145h-85l82 145h138z" />
    <glyph glyph-name="Ocircumflex" unicode="&#xd4;" horiz-adv-x="778" 
d="M389 81q97 0 148 64.5t51 181.5t-50.5 181.5t-149.5 64.5q-96 0 -147 -64t-51 -182q0 -117 51 -181.5t148 -64.5zM734 327q0 -76 -23.5 -139t-68 -108t-108.5 -69.5t-145 -24.5q-82 0 -146 25t-108.5 70.5t-67.5 108t-23 137.5q0 76 23.5 139t68 108t108.5 69.5t145 24.5
q79 0 143 -24.5t109 -69t69 -107.5t24 -140zM442 861l105 -145h-90l-67 85l-69 -85h-90l109 145h102z" />
    <glyph glyph-name="Odieresis" unicode="&#xd6;" horiz-adv-x="778" 
d="M389 81q97 0 148 64.5t51 181.5t-50.5 181.5t-149.5 64.5q-96 0 -147 -64t-51 -182q0 -117 51 -181.5t148 -64.5zM734 327q0 -76 -23.5 -139t-68 -108t-108.5 -69.5t-145 -24.5q-82 0 -146 25t-108.5 70.5t-67.5 108t-23 137.5q0 76 23.5 139t68 108t108.5 69.5t145 24.5
q79 0 143 -24.5t109 -69t69 -107.5t24 -140zM546 852v-115h-110v115h110zM342 852v-115h-110v115h110z" />
    <glyph glyph-name="Ograve" unicode="&#xd2;" horiz-adv-x="778" 
d="M389 81q97 0 148 64.5t51 181.5t-50.5 181.5t-149.5 64.5q-96 0 -147 -64t-51 -182q0 -117 51 -181.5t148 -64.5zM734 327q0 -76 -23.5 -139t-68 -108t-108.5 -69.5t-145 -24.5q-82 0 -146 25t-108.5 70.5t-67.5 108t-23 137.5q0 76 23.5 139t68 108t108.5 69.5t145 24.5
q79 0 143 -24.5t109 -69t69 -107.5t24 -140zM375 861l82 -145h-85l-135 145h138z" />
    <glyph glyph-name="Otilde" unicode="&#xd5;" horiz-adv-x="778" 
d="M389 81q97 0 148 64.5t51 181.5t-50.5 181.5t-149.5 64.5q-96 0 -147 -64t-51 -182q0 -117 51 -181.5t148 -64.5zM734 327q0 -76 -23.5 -139t-68 -108t-108.5 -69.5t-145 -24.5q-82 0 -146 25t-108.5 70.5t-67.5 108t-23 137.5q0 76 23.5 139t68 108t108.5 69.5t145 24.5
q79 0 143 -24.5t109 -69t69 -107.5t24 -140zM211 722q8 55 37 88t75 33q18 0 36.5 -5.5t41.5 -14.5t39.5 -14t31.5 -5q18 0 29.5 16t15.5 32h50q-3 -26 -12 -48.5t-23 -39t-32.5 -26t-40.5 -9.5q-20 0 -37.5 5t-39.5 14q-23 9 -39.5 14.5t-32.5 5.5q-21 0 -32 -14.5
t-17 -31.5h-50z" />
    <glyph glyph-name="Scaron" unicode="&#x160;" horiz-adv-x="612" 
d="M542 654v-204h-120q-2 27 -7.5 50.5t-19.5 40.5t-38.5 27t-62.5 10q-45 0 -75 -20t-30 -65q0 -23 11 -39t31.5 -27.5t50 -20t66.5 -17.5q42 -10 80 -23.5t67.5 -36.5t46.5 -58t17 -88q0 -46 -16.5 -82.5t-45.5 -62t-68 -39t-84 -13.5q-38 0 -65 4.5t-47.5 13t-35.5 21
t-27 29.5h-2v-54h-115v220h120q0 -78 33 -111t106 -33q18 0 37 5.5t35 16t26.5 26.5t10.5 37q0 30 -10.5 50.5t-30.5 34.5t-49 23.5t-66 17.5q-66 14 -104 29t-63 41q-42 43 -42 121q0 46 15.5 81.5t43.5 59.5t67 36.5t86 12.5q48 0 87.5 -13t69.5 -54h2v53h115zM238 861
l67 -85l69 85h90l-109 -145h-102l-105 145h90z" />
    <glyph glyph-name="Uacute" unicode="&#xda;" horiz-adv-x="722" 
d="M314 654v-95h-90v-308q0 -90 37 -130t106 -40q77 0 110.5 41t33.5 113v324h-90v95h285v-95h-70v-332q0 -49 -19.5 -92.5t-54.5 -76.5t-85 -52.5t-111 -19.5q-75 0 -128 19.5t-87 53t-49.5 78t-15.5 94.5v328h-70v95h298zM509 861l-135 -145h-85l82 145h138z" />
    <glyph glyph-name="Ucircumflex" unicode="&#xdb;" horiz-adv-x="722" 
d="M314 654v-95h-90v-308q0 -90 37 -130t106 -40q77 0 110.5 41t33.5 113v324h-90v95h285v-95h-70v-332q0 -49 -19.5 -92.5t-54.5 -76.5t-85 -52.5t-111 -19.5q-75 0 -128 19.5t-87 53t-49.5 78t-15.5 94.5v328h-70v95h298zM414 861l105 -145h-90l-67 85l-69 -85h-90
l109 145h102z" />
    <glyph glyph-name="Udieresis" unicode="&#xdc;" horiz-adv-x="722" 
d="M314 654v-95h-90v-308q0 -90 37 -130t106 -40q77 0 110.5 41t33.5 113v324h-90v95h285v-95h-70v-332q0 -49 -19.5 -92.5t-54.5 -76.5t-85 -52.5t-111 -19.5q-75 0 -128 19.5t-87 53t-49.5 78t-15.5 94.5v328h-70v95h298zM518 852v-115h-110v115h110zM314 852v-115h-110
v115h110z" />
    <glyph glyph-name="Ugrave" unicode="&#xd9;" horiz-adv-x="722" 
d="M314 654v-95h-90v-308q0 -90 37 -130t106 -40q77 0 110.5 41t33.5 113v324h-90v95h285v-95h-70v-332q0 -49 -19.5 -92.5t-54.5 -76.5t-85 -52.5t-111 -19.5q-75 0 -128 19.5t-87 53t-49.5 78t-15.5 94.5v328h-70v95h298zM347 861l82 -145h-85l-135 145h138z" />
    <glyph glyph-name="Yacute" unicode="&#xdd;" horiz-adv-x="723" 
d="M318 654v-95h-85l135 -206l136 206h-85v95h288v-95h-55l-222 -325v-139h95v-95h-328v95h95v139l-221 325h-55v95h302zM510 861l-135 -145h-85l82 145h138z" />
    <glyph glyph-name="Ydieresis" unicode="&#x178;" horiz-adv-x="723" 
d="M318 654v-95h-85l135 -206l136 206h-85v95h288v-95h-55l-222 -325v-139h95v-95h-328v95h95v139l-221 325h-55v95h302zM519 852v-115h-110v115h110zM315 852v-115h-110v115h110z" />
    <glyph glyph-name="Zcaron" unicode="&#x17d;" horiz-adv-x="668" 
d="M613 654v-120l-408 -439h304v132h115v-227h-580v122l403 437h-277v-120h-115v215h558zM266 861l67 -85l69 85h90l-109 -145h-102l-105 145h90z" />
    <glyph glyph-name="aacute" unicode="&#xe1;" 
d="M233 76q21 0 42.5 6.5t39.5 22.5t29 42.5t11 66.5h-69q-69 0 -96.5 -19.5t-27.5 -54.5q0 -33 20 -48.5t51 -15.5zM540 90v-90h-183v68h-2q-31 -47 -66.5 -64.5t-88.5 -17.5q-35 0 -65 10t-51.5 29.5t-34 47t-12.5 63.5q0 52 21 83t56.5 47.5t82 22t97.5 5.5h61v36
q0 32 -20 52t-70 20q-39 0 -62 -17.5t-26 -58.5h-125q3 47 21 77t48 47.5t70.5 24.5t88.5 7q55 0 93 -11.5t62 -36t34.5 -63t10.5 -92.5v-189h60zM426 675l-135 -145h-85l82 145h138z" />
    <glyph glyph-name="acircumflex" unicode="&#xe2;" 
d="M233 76q21 0 42.5 6.5t39.5 22.5t29 42.5t11 66.5h-69q-69 0 -96.5 -19.5t-27.5 -54.5q0 -33 20 -48.5t51 -15.5zM540 90v-90h-183v68h-2q-31 -47 -66.5 -64.5t-88.5 -17.5q-35 0 -65 10t-51.5 29.5t-34 47t-12.5 63.5q0 52 21 83t56.5 47.5t82 22t97.5 5.5h61v36
q0 32 -20 52t-70 20q-39 0 -62 -17.5t-26 -58.5h-125q3 47 21 77t48 47.5t70.5 24.5t88.5 7q55 0 93 -11.5t62 -36t34.5 -63t10.5 -92.5v-189h60zM331 675l105 -145h-90l-67 85l-69 -85h-90l109 145h102z" />
    <glyph glyph-name="adieresis" unicode="&#xe4;" 
d="M233 76q21 0 42.5 6.5t39.5 22.5t29 42.5t11 66.5h-69q-69 0 -96.5 -19.5t-27.5 -54.5q0 -33 20 -48.5t51 -15.5zM540 90v-90h-183v68h-2q-31 -47 -66.5 -64.5t-88.5 -17.5q-35 0 -65 10t-51.5 29.5t-34 47t-12.5 63.5q0 52 21 83t56.5 47.5t82 22t97.5 5.5h61v36
q0 32 -20 52t-70 20q-39 0 -62 -17.5t-26 -58.5h-125q3 47 21 77t48 47.5t70.5 24.5t88.5 7q55 0 93 -11.5t62 -36t34.5 -63t10.5 -92.5v-189h60zM435 666v-115h-110v115h110zM231 666v-115h-110v115h110z" />
    <glyph glyph-name="agrave" unicode="&#xe0;" 
d="M233 76q21 0 42.5 6.5t39.5 22.5t29 42.5t11 66.5h-69q-69 0 -96.5 -19.5t-27.5 -54.5q0 -33 20 -48.5t51 -15.5zM540 90v-90h-183v68h-2q-31 -47 -66.5 -64.5t-88.5 -17.5q-35 0 -65 10t-51.5 29.5t-34 47t-12.5 63.5q0 52 21 83t56.5 47.5t82 22t97.5 5.5h61v36
q0 32 -20 52t-70 20q-39 0 -62 -17.5t-26 -58.5h-125q3 47 21 77t48 47.5t70.5 24.5t88.5 7q55 0 93 -11.5t62 -36t34.5 -63t10.5 -92.5v-189h60zM264 675l82 -145h-85l-135 145h138z" />
    <glyph glyph-name="aring" unicode="&#xe5;" 
d="M233 76q21 0 42.5 6.5t39.5 22.5t29 42.5t11 66.5h-69q-69 0 -96.5 -19.5t-27.5 -54.5q0 -33 20 -48.5t51 -15.5zM540 90v-90h-183v68h-2q-31 -47 -66.5 -64.5t-88.5 -17.5q-35 0 -65 10t-51.5 29.5t-34 47t-12.5 63.5q0 52 21 83t56.5 47.5t82 22t97.5 5.5h61v36
q0 32 -20 52t-70 20q-39 0 -62 -17.5t-26 -58.5h-125q3 47 21 77t48 47.5t70.5 24.5t88.5 7q55 0 93 -11.5t62 -36t34.5 -63t10.5 -92.5v-189h60zM278 565q24 0 40.5 17t16.5 40t-16.5 40t-40.5 17q-23 0 -40 -17t-17 -40t17 -40t40 -17zM385 622q0 -23 -8.5 -42.5t-23 -34
t-34 -22.5t-41.5 -8t-41.5 8t-34 22.5t-23 34t-8.5 42.5q0 22 8.5 41.5t23 34t34 23t41.5 8.5q23 0 42.5 -8.5t34 -23t22.5 -34t8 -41.5z" />
    <glyph glyph-name="atilde" unicode="&#xe3;" 
d="M233 76q21 0 42.5 6.5t39.5 22.5t29 42.5t11 66.5h-69q-69 0 -96.5 -19.5t-27.5 -54.5q0 -33 20 -48.5t51 -15.5zM540 90v-90h-183v68h-2q-31 -47 -66.5 -64.5t-88.5 -17.5q-35 0 -65 10t-51.5 29.5t-34 47t-12.5 63.5q0 52 21 83t56.5 47.5t82 22t97.5 5.5h61v36
q0 32 -20 52t-70 20q-39 0 -62 -17.5t-26 -58.5h-125q3 47 21 77t48 47.5t70.5 24.5t88.5 7q55 0 93 -11.5t62 -36t34.5 -63t10.5 -92.5v-189h60zM100 536q8 55 37 88t75 33q18 0 36.5 -5.5t41.5 -14.5t39.5 -14t31.5 -5q18 0 29.5 16t15.5 32h50q-3 -26 -12 -48.5t-23 -39
t-32.5 -26t-40.5 -9.5q-20 0 -37.5 5t-39.5 14q-23 9 -39.5 14.5t-32.5 5.5q-21 0 -32 -14.5t-17 -31.5h-50z" />
    <glyph glyph-name="ccedilla" unicode="&#xe7;" horiz-adv-x="500" 
d="M471 287h-105q-2 54 -25 79.5t-71 25.5q-54 0 -79 -42.5t-25 -113.5q0 -155 107 -155q36 0 60 22t27 60h120q-8 -85 -64 -131t-149 -46l-39 -47l2 -2q9 2 19 4t21 2q35 0 58 -21t23 -54q0 -23 -11 -39.5t-28.5 -27t-39.5 -15t-45 -4.5q-26 0 -52 5t-50 16l21 41
q16 -9 34.5 -13t35.5 -4q20 0 37.5 6t17.5 27q0 18 -13.5 28t-30.5 10q-9 0 -20 -1.5t-21 -6.5l-19 25l56 75q-51 7 -88 30t-61 55t-35 71t-11 79q0 57 12.5 104.5t39 81t66.5 52.5t95 19q40 0 74 -17.5t54 -50.5h2v54h100v-181z" />
    <glyph glyph-name="eacute" unicode="&#xe9;" 
d="M384 281q0 51 -25.5 81t-78.5 30q-48 0 -75.5 -31t-27.5 -80h207zM511 145q-15 -78 -73 -118.5t-148 -40.5q-123 0 -187 68.5t-64 185.5q0 55 18 100t50.5 76.5t78 48.5t101.5 17q44 0 85.5 -13.5t73.5 -43t51.5 -76t19.5 -112.5v-41h-340q0 -57 31.5 -88.5t85.5 -31.5
q34 0 58 15.5t34 53.5h125zM426 675l-135 -145h-85l82 145h138z" />
    <glyph glyph-name="ecircumflex" unicode="&#xea;" 
d="M384 281q0 51 -25.5 81t-78.5 30q-48 0 -75.5 -31t-27.5 -80h207zM511 145q-15 -78 -73 -118.5t-148 -40.5q-123 0 -187 68.5t-64 185.5q0 55 18 100t50.5 76.5t78 48.5t101.5 17q44 0 85.5 -13.5t73.5 -43t51.5 -76t19.5 -112.5v-41h-340q0 -57 31.5 -88.5t85.5 -31.5
q34 0 58 15.5t34 53.5h125zM331 675l105 -145h-90l-67 85l-69 -85h-90l109 145h102z" />
    <glyph glyph-name="edieresis" unicode="&#xeb;" 
d="M384 281q0 51 -25.5 81t-78.5 30q-48 0 -75.5 -31t-27.5 -80h207zM511 145q-15 -78 -73 -118.5t-148 -40.5q-123 0 -187 68.5t-64 185.5q0 55 18 100t50.5 76.5t78 48.5t101.5 17q44 0 85.5 -13.5t73.5 -43t51.5 -76t19.5 -112.5v-41h-340q0 -57 31.5 -88.5t85.5 -31.5
q34 0 58 15.5t34 53.5h125zM435 666v-115h-110v115h110zM231 666v-115h-110v115h110z" />
    <glyph glyph-name="egrave" unicode="&#xe8;" 
d="M384 281q0 51 -25.5 81t-78.5 30q-48 0 -75.5 -31t-27.5 -80h207zM511 145q-15 -78 -73 -118.5t-148 -40.5q-123 0 -187 68.5t-64 185.5q0 55 18 100t50.5 76.5t78 48.5t101.5 17q44 0 85.5 -13.5t73.5 -43t51.5 -76t19.5 -112.5v-41h-340q0 -57 31.5 -88.5t85.5 -31.5
q34 0 58 15.5t34 53.5h125zM264 675l82 -145h-85l-135 145h138z" />
    <glyph glyph-name="iacute" unicode="&#xed;" horiz-adv-x="333" 
d="M233 468v-378h65v-90h-263v90h65v288h-65v90h198zM315 675l-135 -145h-85l82 145h138z" />
    <glyph glyph-name="icircumflex" unicode="&#xee;" horiz-adv-x="333" 
d="M233 468v-378h65v-90h-263v90h65v288h-65v90h198zM220 675l105 -145h-90l-67 85l-69 -85h-90l109 145h102z" />
    <glyph glyph-name="idieresis" unicode="&#xef;" horiz-adv-x="333" 
d="M233 468v-378h65v-90h-263v90h65v288h-65v90h198zM324 666v-115h-110v115h110zM120 666v-115h-110v115h110z" />
    <glyph glyph-name="igrave" unicode="&#xec;" horiz-adv-x="333" 
d="M233 468v-378h65v-90h-263v90h65v288h-65v90h198zM153 675l82 -145h-85l-135 145h138z" />
    <glyph glyph-name="ntilde" unicode="&#xf1;" horiz-adv-x="668" 
d="M624 0h-258v90h60v203q0 17 -5 34t-15 30.5t-25.5 21.5t-36.5 8q-26 0 -44.5 -10.5t-31.5 -28t-19 -40.5t-6 -49v-169h60v-90h-258v90h65v288h-65v90h186v-79h2q24 45 66 69t93 24q92 0 129.5 -47.5t37.5 -135.5v-209h65v-90zM156 536q8 55 37 88t75 33q18 0 36.5 -5.5
t41.5 -14.5t39.5 -14t31.5 -5q18 0 29.5 16t15.5 32h50q-3 -26 -12 -48.5t-23 -39t-32.5 -26t-40.5 -9.5q-20 0 -37.5 5t-39.5 14q-23 9 -39.5 14.5t-32.5 5.5q-21 0 -32 -14.5t-17 -31.5h-50z" />
    <glyph glyph-name="oacute" unicode="&#xf3;" 
d="M278 81q30 0 51 12.5t34.5 33.5t20 48.5t6.5 58.5q0 27 -5.5 54t-18 49t-34.5 36t-55 14q-52 0 -81.5 -40.5t-29.5 -112.5q0 -33 6.5 -61t20.5 -48.5t35 -32t50 -11.5zM528 234q0 -58 -18 -104t-51 -78t-79 -49t-102 -17t-102 17.5t-79 49.5t-51 78t-18 103t17.5 102.5
t50.5 78t79 50t103 17.5q56 0 102 -17t79 -49t51 -78t18 -104zM426 675l-135 -145h-85l82 145h138z" />
    <glyph glyph-name="ocircumflex" unicode="&#xf4;" 
d="M278 81q30 0 51 12.5t34.5 33.5t20 48.5t6.5 58.5q0 27 -5.5 54t-18 49t-34.5 36t-55 14q-52 0 -81.5 -40.5t-29.5 -112.5q0 -33 6.5 -61t20.5 -48.5t35 -32t50 -11.5zM528 234q0 -58 -18 -104t-51 -78t-79 -49t-102 -17t-102 17.5t-79 49.5t-51 78t-18 103t17.5 102.5
t50.5 78t79 50t103 17.5q56 0 102 -17t79 -49t51 -78t18 -104zM331 675l105 -145h-90l-67 85l-69 -85h-90l109 145h102z" />
    <glyph glyph-name="odieresis" unicode="&#xf6;" 
d="M278 81q30 0 51 12.5t34.5 33.5t20 48.5t6.5 58.5q0 27 -5.5 54t-18 49t-34.5 36t-55 14q-52 0 -81.5 -40.5t-29.5 -112.5q0 -33 6.5 -61t20.5 -48.5t35 -32t50 -11.5zM528 234q0 -58 -18 -104t-51 -78t-79 -49t-102 -17t-102 17.5t-79 49.5t-51 78t-18 103t17.5 102.5
t50.5 78t79 50t103 17.5q56 0 102 -17t79 -49t51 -78t18 -104zM435 666v-115h-110v115h110zM231 666v-115h-110v115h110z" />
    <glyph glyph-name="ograve" unicode="&#xf2;" 
d="M278 81q30 0 51 12.5t34.5 33.5t20 48.5t6.5 58.5q0 27 -5.5 54t-18 49t-34.5 36t-55 14q-52 0 -81.5 -40.5t-29.5 -112.5q0 -33 6.5 -61t20.5 -48.5t35 -32t50 -11.5zM528 234q0 -58 -18 -104t-51 -78t-79 -49t-102 -17t-102 17.5t-79 49.5t-51 78t-18 103t17.5 102.5
t50.5 78t79 50t103 17.5q56 0 102 -17t79 -49t51 -78t18 -104zM264 675l82 -145h-85l-135 145h138z" />
    <glyph glyph-name="otilde" unicode="&#xf5;" 
d="M278 81q30 0 51 12.5t34.5 33.5t20 48.5t6.5 58.5q0 27 -5.5 54t-18 49t-34.5 36t-55 14q-52 0 -81.5 -40.5t-29.5 -112.5q0 -33 6.5 -61t20.5 -48.5t35 -32t50 -11.5zM528 234q0 -58 -18 -104t-51 -78t-79 -49t-102 -17t-102 17.5t-79 49.5t-51 78t-18 103t17.5 102.5
t50.5 78t79 50t103 17.5q56 0 102 -17t79 -49t51 -78t18 -104zM100 536q8 55 37 88t75 33q18 0 36.5 -5.5t41.5 -14.5t39.5 -14t31.5 -5q18 0 29.5 16t15.5 32h50q-3 -26 -12 -48.5t-23 -39t-32.5 -26t-40.5 -9.5q-20 0 -37.5 5t-39.5 14q-23 9 -39.5 14.5t-32.5 5.5
q-21 0 -32 -14.5t-17 -31.5h-50z" />
    <glyph glyph-name="scaron" unicode="&#x161;" horiz-adv-x="500" 
d="M213 482q42 0 72.5 -14t53.5 -49h2v49h100v-155h-105q0 42 -24.5 60.5t-61.5 18.5q-72 0 -72 -50q0 -28 28.5 -38t85.5 -19q37 -6 67 -15.5t51.5 -26.5t33 -43t11.5 -64q0 -32 -12.5 -59.5t-34.5 -47.5t-52.5 -31.5t-67.5 -11.5q-52 0 -85 17.5t-54 46.5h-2v-50h-100v165
h105q0 -44 29.5 -66.5t70.5 -22.5q13 0 25.5 2.5t22.5 9t16 17t6 25.5t-8 24.5t-23.5 16t-39 10.5l-53.5 9q-78 13 -115.5 46.5t-37.5 101.5q0 36 14 63t37.5 45t54 27t62.5 9zM182 675l67 -85l69 85h90l-109 -145h-102l-105 145h90z" />
    <glyph glyph-name="uacute" unicode="&#xfa;" horiz-adv-x="611" 
d="M214 468v-292q0 -40 22 -67.5t60 -27.5q48 0 74.5 35.5t26.5 93.5v168h-60v90h193v-378h65v-90h-186v79h-2q-24 -45 -66 -69t-93 -24q-93 0 -130 47.5t-37 135.5v209h-65v90h198zM454 675l-135 -145h-85l82 145h138z" />
    <glyph glyph-name="ucircumflex" unicode="&#xfb;" horiz-adv-x="611" 
d="M214 468v-292q0 -40 22 -67.5t60 -27.5q48 0 74.5 35.5t26.5 93.5v168h-60v90h193v-378h65v-90h-186v79h-2q-24 -45 -66 -69t-93 -24q-93 0 -130 47.5t-37 135.5v209h-65v90h198zM359 675l105 -145h-90l-67 85l-69 -85h-90l109 145h102z" />
    <glyph glyph-name="udieresis" unicode="&#xfc;" horiz-adv-x="611" 
d="M214 468v-292q0 -40 22 -67.5t60 -27.5q48 0 74.5 35.5t26.5 93.5v168h-60v90h193v-378h65v-90h-186v79h-2q-24 -45 -66 -69t-93 -24q-93 0 -130 47.5t-37 135.5v209h-65v90h198zM463 666v-115h-110v115h110zM259 666v-115h-110v115h110z" />
    <glyph glyph-name="ugrave" unicode="&#xf9;" horiz-adv-x="611" 
d="M214 468v-292q0 -40 22 -67.5t60 -27.5q48 0 74.5 35.5t26.5 93.5v168h-60v90h193v-378h65v-90h-186v79h-2q-24 -45 -66 -69t-93 -24q-93 0 -130 47.5t-37 135.5v209h-65v90h198zM292 675l82 -145h-85l-135 145h138z" />
    <glyph glyph-name="yacute" unicode="&#xfd;" horiz-adv-x="611" 
d="M277 468v-90h-70l103 -239l107 239h-70v90h249v-90h-45l-231 -471q-23 -47 -55.5 -69t-94.5 -22q-19 0 -38 2t-38 5v95q15 -2 31.5 -4.5t37.5 -2.5q31 0 49 26.5t29 59.5l-181 381h-45v90h262zM454 675l-135 -145h-85l82 145h138z" />
    <glyph glyph-name="ydieresis" unicode="&#xff;" horiz-adv-x="611" 
d="M277 468v-90h-70l103 -239l107 239h-70v90h249v-90h-45l-231 -471q-23 -47 -55.5 -69t-94.5 -22q-19 0 -38 2t-38 5v95q15 -2 31.5 -4.5t37.5 -2.5q31 0 49 26.5t29 59.5l-181 381h-45v90h262zM463 666v-115h-110v115h110zM259 666v-115h-110v115h110z" />
    <glyph glyph-name="zcaron" unicode="&#x17e;" horiz-adv-x="557" 
d="M496 468v-100l-277 -278h173v80h110v-170h-447v105l274 273h-158v-70h-110v160h435zM211 675l67 -85l69 85h90l-109 -145h-102l-105 145h90z" />
    <glyph glyph-name="Euro" unicode="&#x20ac;" 
d="M524 446h-121q-1 55 -25.5 90t-58.5 35q-79 0 -103 -130h157l-16 -87h-148q-1 -4 -1 -9v-22v-19q0 -6 1 -12h136l-16 -85h-112q5 -50 28.5 -84.5t67.5 -34.5q41 0 65.5 33.5t24.5 91.5h122q0 -106 -56 -166t-156 -60q-91 0 -146.5 56t-75.5 164h-76l17 85h49q-1 4 -1 8
v22v20q0 6 1 12h-66l17 87h58q19 107 77 166.5t151 59.5q23 0 48.5 -12t37.5 -35v34h120v-208z" />
    <glyph glyph-name="uni00A0" unicode="&#xa0;" horiz-adv-x="278" 
 />
    <glyph glyph-name="uni00AD" unicode="&#xad;" horiz-adv-x="333" 
d="M284 319v-100h-235v100h235z" />
    </font>
</defs>
</svg>
